<?xml version="1.0" encoding="utf-8"?>
<!-- Generator: Adobe Illustrator 26.2.1, SVG Export Plug-In . SVG Version: 6.00 Build 0)  -->
<svg version="1.1" id="Layer_1" xmlns="http://www.w3.org/2000/svg" xmlns:xlink="http://www.w3.org/1999/xlink" x="0px" y="0px"
	 viewBox="0 0 1080 1080" style="enable-background:new 0 0 1080 1080;" xml:space="preserve">
<style type="text/css">
	.st0{fill:#081C2E;}
	.st1{fill:#359CF3;}
	.st2{fill:#00559A;}
</style>
<g>
	<g>
		<path class="st0" d="M278.36,593.61c-0.98,1.11-1.45,2.21-1.96,3.36c-0.6,1.32-1.62,1.92-3.07,1.92c-1.49,0-2.68-0.51-3.36-1.87
			c-0.43-0.89-0.85-1.83-0.85-2.85c-0.26-8-0.09-15.97,2.26-23.71c1.02-3.58,2.26-7.07,4.13-10.26c1.96-3.41,2.85-7.07,3.45-10.86
			c1.83-11.71,4.81-23.12,10.77-33.55c4.09-7.11,9.62-12.52,18.22-13.58c8.22-1.11,15.07,1.83,20.01,8.47
			c3.83,5.19,8.34,9.15,14.9,10.6c1.53,0.3,2.94,1.11,4.3,1.83c1.36,0.72,2.47,1.87,1.87,3.62c-0.55,1.66-1.96,2.13-3.58,2.13
			c-4.81,0-9.58,0.13-14.39,0c-4.81-0.13-9.54,0.3-14.05,2.13c-6.9,2.72-11.88,7.54-15.45,13.84c-6.51,11.54-8,24.01-6.77,36.87
			c0.64,6.68,2.26,13.24,5.45,19.29c1.4,2.64,3.11,5.11,5.79,6.64c3.7,2.21,7.75,1.75,10.94-1.11c3.92-3.53,6.09-8.09,7.41-12.98
			c2.17-7.88,3.32-15.92,2.85-24.1c-0.34-5.79-1.19-11.58-1.96-17.41c-0.34-2.38,0.04-4.47,2.09-5.92c2.09-1.45,4.17-1.19,6.34,0.08
			c5.62,3.32,9.58,8.17,12.39,13.88c2.89,5.79,4.9,11.92,5.75,18.39c0.77,5.75,0.64,11.54,0.13,17.24
			c-0.17,1.66-0.98,2.89-2.85,3.24c-1.96,0.34-3.36-0.3-4.17-2.09c-0.04-0.08-0.04-0.13-0.09-0.17c-0.64-0.85-0.43-2.72-1.79-2.55
			c-1.23,0.17-0.85,1.92-1.19,2.98c-2.34,7.07-5.36,13.75-9.83,19.8c-1.92,2.6-1.66,3.75,0.89,5.75c0.34,0.3,0.77,0.6,1.11,0.89
			c1.11,1.02,1.62,2.21,0.98,3.66c-0.55,1.32-1.75,1.96-3.11,1.83c-5.87-0.47-11.75-0.6-17.58-0.98c-5.75-0.38-11.45,0.3-17.16,0.38
			c-2.43,0.04-4.9,0.43-7.37,0.55c-1.32,0.08-2.43-0.38-2.94-1.75c-0.55-1.36-0.34-2.68,0.64-3.75c0.38-0.43,0.98-0.72,1.45-1.15
			c2.43-1.92,2.6-3.32,0.72-5.75c-4.64-6-7.92-12.64-9.88-19.97C279.42,595.66,279.12,594.63,278.36,593.61z"/>
		<path class="st1" d="M239.39,531.58c0.21-16.01,4.94-30.7,14.69-43.59c5.75-7.66,12.73-14.05,21.16-18.77
			c1.66-0.94,2.17-1.75,1.11-3.53c-1.62-2.85-2.94-5.92-4.26-8.9c-0.77-1.7-0.21-3.36,1.11-4.6c1.4-1.32,3.15-1.53,4.94-0.85
			c1.28,0.47,1.96,1.4,2.55,2.55c1.32,2.68,2.68,5.28,3.96,7.96c0.72,1.53,1.58,1.96,3.36,1.28c11.71-4.47,23.88-5.75,36.23-4.09
			c11.75,1.62,22.61,5.66,32.36,12.43c2.6,1.75,4.98,3.7,7.36,5.75c2.17,1.83,1.87,4.77-0.47,6.13c-1.11,0.64-2.17,0.55-3.28-0.04
			c-1.62-0.85-2.9-2.26-4.6-3.02c-8.09-3.66-15.71-2.81-22.65,2.68c-4.17,3.28-5.36,7.96-5.15,12.98c0.04,1.7,0.21,3.28-1.36,4.34
			c-1.62,1.02-3.19,0.68-4.81-0.26c-8.77-4.77-17.37-3.96-25.63,1.15c-3.79,2.3-7.15,5.19-9.66,8.9c-1.7,2.55-3.11,5.19-3.02,8.39
			c0.04,1.45-0.51,2.6-1.96,3.24c-1.4,0.68-2.68,0.43-3.83-0.47c-1.23-0.94-2.38-2.04-3.7-2.85c-6.94-4.3-13.11-3.07-19.97,2.3
			c-4.98,3.96-6.94,9.49-7.07,15.67c-0.04,1.75-0.64,3.02-2.3,3.7c-1.53,0.6-2.81,0.08-3.92-1.02c-0.47-0.51-0.77-1.11-0.81-1.79
			C239.65,535.32,239.52,533.41,239.39,531.58z"/>
		<path class="st1" d="M375.88,605.34c0.55,9.24-6.09,17.45-13.33,19.97c-3.62,1.23-7.32,0.98-10.9,0.26
			c-5.15-1.11-9.75-3.45-13.92-6.56c-1.49-1.11-1.96-2.09-0.68-3.66c2.09-2.64,3.53-5.58,4.68-8.64c0.51-1.45,1.19-1.49,2.13-0.3
			c1.11,1.45,2.26,2.89,3.36,4.3c2.51,3.19,5.79,4.21,9.66,3.15c3.58-0.98,5.58-3.53,6.13-7.07c0.34-2.3-0.38-4.47-1.58-6.56
			c-2.43-4.39-0.3-8.81,4.51-9.62c2.43-0.43,4.51,0.38,5.96,2.34C374.6,596.65,376.22,600.78,375.88,605.34z"/>
		<path class="st1" d="M423.08,559.93c-0.74,0-1.37-0.26-1.89-0.78c-0.52-0.52-0.78-1.15-0.78-1.89v-61.51h-20.58
			c-0.74,0-1.37-0.26-1.89-0.78c-0.52-0.52-0.78-1.15-0.78-1.89v-8.23c0-0.82,0.26-1.48,0.78-2c0.52-0.52,1.15-0.78,1.89-0.78h56.73
			c0.82,0,1.48,0.26,2,0.78c0.52,0.52,0.78,1.19,0.78,2v8.23c0,0.74-0.26,1.37-0.78,1.89c-0.52,0.52-1.19,0.78-2,0.78H436.1v61.51
			c0,0.74-0.26,1.37-0.78,1.89c-0.52,0.52-1.19,0.78-2,0.78H423.08z"/>
		<path class="st1" d="M483.7,561.05c-4.52,0-8.45-1-11.79-3c-3.26-2.08-5.78-4.97-7.56-8.68c-1.78-3.78-2.67-8.23-2.67-13.35
			v-31.26c0-0.74,0.26-1.37,0.78-1.89c0.52-0.52,1.15-0.78,1.89-0.78h9.79c0.82,0,1.45,0.26,1.89,0.78
			c0.52,0.52,0.78,1.15,0.78,1.89v30.59c0,9.2,4.04,13.79,12.12,13.79c3.86,0,6.9-1.22,9.12-3.67c2.3-2.45,3.45-5.82,3.45-10.12
			v-30.59c0-0.74,0.26-1.37,0.78-1.89c0.52-0.52,1.15-0.78,1.89-0.78h9.79c0.74,0,1.37,0.26,1.89,0.78
			c0.52,0.52,0.78,1.15,0.78,1.89v52.5c0,0.74-0.26,1.37-0.78,1.89c-0.52,0.52-1.15,0.78-1.89,0.78h-9.01c-0.82,0-1.48-0.26-2-0.78
			c-0.45-0.52-0.67-1.15-0.67-1.89v-4.56c-2,2.6-4.49,4.63-7.45,6.12C491.86,560.3,488.15,561.05,483.7,561.05z"/>
		<path class="st1" d="M528.87,559.93c-0.67,0-1.26-0.22-1.78-0.67c-0.45-0.52-0.67-1.11-0.67-1.78c0-0.22,0.04-0.48,0.11-0.78
			c0.15-0.3,0.37-0.67,0.67-1.11l18.91-25.36l-17.58-23.8c-0.22-0.37-0.41-0.7-0.56-1c-0.07-0.3-0.11-0.59-0.11-0.89
			c0-0.67,0.22-1.22,0.67-1.67c0.52-0.52,1.11-0.78,1.78-0.78H540c0.89,0,1.56,0.22,2,0.67c0.45,0.45,0.78,0.85,1,1.22l12.57,16.68
			l12.57-16.68c0.3-0.37,0.63-0.78,1-1.22c0.45-0.44,1.11-0.67,2-0.67h9.23c0.67,0,1.22,0.26,1.67,0.78
			c0.52,0.44,0.78,0.96,0.78,1.56c0,0.37-0.07,0.7-0.22,1c-0.07,0.3-0.22,0.63-0.45,1l-17.8,24.03l19.02,25.14
			c0.3,0.44,0.48,0.82,0.56,1.11c0.15,0.3,0.22,0.56,0.22,0.78c0,0.67-0.26,1.26-0.78,1.78c-0.44,0.44-1,0.67-1.67,0.67h-10.12
			c-0.82,0-1.45-0.19-1.89-0.56c-0.44-0.44-0.82-0.85-1.11-1.22l-13.35-17.69l-13.57,17.69c-0.3,0.37-0.67,0.78-1.11,1.22
			c-0.37,0.37-1,0.56-1.89,0.56H528.87z"/>
		<path class="st0" d="M634.38,561.05c-6.9,0-12.76-1.19-17.58-3.56c-4.75-2.45-8.38-5.9-10.9-10.35
			c-2.52-4.52-3.93-9.94-4.23-16.24c-0.07-3.04-0.11-6.3-0.11-9.79s0.04-6.82,0.11-10.01c0.3-6.23,1.71-11.61,4.23-16.13
			c2.6-4.52,6.27-7.97,11.01-10.34c4.82-2.45,10.64-3.67,17.46-3.67c5.04,0,9.57,0.67,13.57,2c4,1.33,7.42,3.19,10.23,5.56
			c2.82,2.3,5.01,5.01,6.56,8.12c1.56,3.11,2.37,6.49,2.45,10.12c0.07,0.67-0.15,1.22-0.67,1.67c-0.44,0.44-1,0.67-1.67,0.67h-10.57
			c-0.82,0-1.48-0.19-2-0.56c-0.52-0.44-0.89-1.15-1.11-2.11c-1.19-4.89-3.23-8.23-6.12-10.01c-2.89-1.78-6.49-2.67-10.79-2.67
			c-4.97,0-8.94,1.41-11.9,4.23c-2.97,2.74-4.56,7.3-4.78,13.68c-0.22,6.08-0.22,12.31,0,18.69c0.22,6.38,1.82,10.98,4.78,13.79
			c2.97,2.74,6.93,4.12,11.9,4.12c4.3,0,7.9-0.89,10.79-2.67c2.89-1.85,4.93-5.19,6.12-10.01c0.22-1.04,0.59-1.74,1.11-2.11
			c0.52-0.37,1.19-0.56,2-0.56h10.57c0.67,0,1.22,0.22,1.67,0.67c0.52,0.45,0.74,1,0.67,1.67c-0.07,3.63-0.89,7.01-2.45,10.12
			c-1.56,3.11-3.74,5.86-6.56,8.23c-2.82,2.3-6.23,4.12-10.23,5.45C643.94,560.38,639.42,561.05,634.38,561.05z"/>
		<path class="st0" d="M695.84,561.05c-3.86,0-7.34-0.74-10.46-2.22c-3.11-1.56-5.6-3.6-7.45-6.12c-1.78-2.6-2.67-5.49-2.67-8.68
			c0-5.19,2.08-9.31,6.23-12.35c4.23-3.11,9.79-5.19,16.69-6.23l15.24-2.22v-2.34c0-3.11-0.78-5.52-2.34-7.23
			c-1.56-1.71-4.23-2.56-8.01-2.56c-2.67,0-4.86,0.56-6.56,1.67c-1.63,1.04-2.85,2.45-3.67,4.23c-0.59,0.96-1.45,1.45-2.56,1.45
			h-8.79c-0.82,0-1.45-0.22-1.89-0.67c-0.37-0.44-0.56-1.04-0.56-1.78c0.07-1.19,0.56-2.63,1.45-4.34c0.89-1.71,2.3-3.34,4.23-4.89
			c1.93-1.63,4.41-3,7.45-4.12s6.71-1.67,11.01-1.67c4.67,0,8.6,0.59,11.79,1.78c3.26,1.11,5.86,2.63,7.79,4.56
			c1.93,1.93,3.34,4.19,4.23,6.79c0.89,2.6,1.33,5.34,1.33,8.23v34.93c0,0.74-0.26,1.37-0.78,1.89c-0.52,0.52-1.15,0.78-1.89,0.78
			h-9.01c-0.82,0-1.48-0.26-2-0.78c-0.44-0.52-0.67-1.15-0.67-1.89v-4.34c-0.96,1.41-2.26,2.74-3.89,4c-1.63,1.19-3.63,2.19-6.01,3
			C701.78,560.67,699.03,561.05,695.84,561.05z M699.63,550.48c2.6,0,4.93-0.56,7.01-1.67c2.15-1.11,3.82-2.82,5.01-5.12
			c1.26-2.37,1.89-5.34,1.89-8.9v-2.34l-11.12,1.78c-4.38,0.67-7.64,1.74-9.79,3.23c-2.15,1.48-3.23,3.3-3.23,5.45
			c0,1.63,0.48,3.04,1.45,4.23c1.04,1.11,2.34,1.97,3.89,2.56C696.29,550.22,697.92,550.48,699.63,550.48z"/>
		<path class="st0" d="M745.26,559.93c-0.74,0-1.37-0.26-1.89-0.78c-0.52-0.52-0.78-1.15-0.78-1.89v-52.39c0-0.82,0.26-1.48,0.78-2
			c0.52-0.52,1.15-0.78,1.89-0.78h9.01c0.74,0,1.37,0.26,1.89,0.78c0.59,0.52,0.89,1.19,0.89,2v4.56c1.71-2.37,3.89-4.19,6.56-5.45
			c2.74-1.26,5.9-1.89,9.46-1.89h4.56c0.82,0,1.45,0.26,1.89,0.78c0.52,0.52,0.78,1.15,0.78,1.89v8.01c0,0.74-0.26,1.37-0.78,1.89
			c-0.45,0.52-1.08,0.78-1.89,0.78h-8.68c-3.56,0-6.34,1-8.34,3c-1.93,2-2.89,4.75-2.89,8.23v30.59c0,0.74-0.26,1.37-0.78,1.89
			c-0.52,0.52-1.19,0.78-2,0.78H745.26z"/>
		<path class="st0" d="M813.13,561.05c-8.23,0-14.76-2.37-19.58-7.12c-4.82-4.75-7.42-11.49-7.79-20.24
			c-0.07-0.74-0.11-1.67-0.11-2.78c0-1.19,0.04-2.11,0.11-2.78c0.3-5.56,1.56-10.38,3.78-14.46c2.3-4.08,5.45-7.19,9.46-9.34
			c4-2.22,8.71-3.34,14.13-3.34c6.01,0,11.05,1.26,15.13,3.78c4.08,2.45,7.16,5.9,9.23,10.34c2.08,4.38,3.11,9.46,3.11,15.24v2.34
			c0,0.74-0.26,1.37-0.78,1.89c-0.52,0.52-1.19,0.78-2,0.78H800.9c0,0,0,0.11,0,0.33c0,0.22,0,0.41,0,0.56
			c0.07,2.6,0.56,5.01,1.45,7.23c0.96,2.15,2.34,3.89,4.12,5.23c1.85,1.33,4.04,2,6.56,2c2.08,0,3.82-0.3,5.23-0.89
			c1.41-0.67,2.56-1.41,3.45-2.22c0.89-0.82,1.52-1.48,1.89-2c0.67-0.89,1.19-1.41,1.56-1.56c0.45-0.22,1.08-0.33,1.89-0.33h9.57
			c0.74,0,1.33,0.22,1.78,0.67c0.52,0.44,0.74,1,0.67,1.67c-0.07,1.19-0.7,2.63-1.89,4.34c-1.11,1.71-2.74,3.37-4.89,5.01
			c-2.15,1.63-4.86,3-8.12,4.12C820.96,560.53,817.29,561.05,813.13,561.05z M800.9,526.01h24.58v-0.33c0-2.89-0.48-5.41-1.45-7.56
			c-0.96-2.15-2.37-3.86-4.23-5.12c-1.85-1.26-4.08-1.89-6.67-1.89c-2.6,0-4.82,0.63-6.67,1.89c-1.85,1.26-3.26,2.97-4.23,5.12
			c-0.89,2.15-1.33,4.67-1.33,7.56V526.01z"/>
	</g>
	<g>
		<path class="st0" d="M461.94,608.02c-0.17,0-0.32-0.06-0.44-0.19c-0.13-0.13-0.19-0.27-0.19-0.44c0-0.11,0.01-0.22,0.03-0.35
			l7.83-20.41c0.08-0.21,0.2-0.38,0.35-0.5c0.15-0.13,0.37-0.19,0.66-0.19h2.15c0.29,0,0.52,0.06,0.66,0.19
			c0.15,0.13,0.26,0.29,0.35,0.5l7.79,20.41c0.04,0.13,0.06,0.24,0.06,0.35c0,0.17-0.06,0.32-0.19,0.44
			c-0.13,0.13-0.27,0.19-0.44,0.19h-1.61c-0.25,0-0.44-0.06-0.55-0.19c-0.12-0.13-0.19-0.24-0.24-0.35l-1.74-4.48h-10.35l-1.74,4.48
			c-0.02,0.11-0.09,0.22-0.22,0.35c-0.13,0.13-0.32,0.19-0.57,0.19H461.94z M466.99,600.29h8.52l-4.26-11.2L466.99,600.29z"/>
		<path class="st0" d="M497.06,608.33c-1.16,0-2.16-0.21-3-0.62c-0.84-0.41-1.53-0.97-2.07-1.67c-0.54-0.71-0.94-1.51-1.2-2.41
			c-0.26-0.9-0.42-1.86-0.46-2.87c-0.02-0.34-0.03-0.65-0.03-0.95c0-0.29,0.01-0.61,0.03-0.95c0.04-0.99,0.19-1.93,0.46-2.84
			c0.26-0.9,0.66-1.71,1.2-2.43c0.54-0.71,1.23-1.28,2.07-1.69c0.84-0.41,1.84-0.62,3-0.62c1.24,0,2.27,0.22,3.09,0.66
			c0.82,0.44,1.49,0.99,2.02,1.64v-7.26c0-0.21,0.07-0.38,0.21-0.52c0.14-0.14,0.31-0.21,0.52-0.21h1.51c0.21,0,0.38,0.07,0.52,0.21
			c0.14,0.14,0.21,0.31,0.21,0.52v20.95c0,0.21-0.07,0.38-0.21,0.52c-0.14,0.14-0.31,0.21-0.52,0.21h-1.42
			c-0.23,0-0.41-0.07-0.54-0.21c-0.13-0.14-0.19-0.31-0.19-0.52v-1.33c-0.53,0.67-1.21,1.24-2.05,1.69
			C499.37,608.11,498.32,608.33,497.06,608.33z M497.72,605.78c1.05,0,1.89-0.24,2.52-0.73c0.63-0.48,1.1-1.1,1.42-1.85
			s0.48-1.51,0.5-2.29c0.02-0.34,0.03-0.74,0.03-1.21c0-0.47-0.01-0.88-0.03-1.21c-0.02-0.74-0.19-1.46-0.52-2.18
			c-0.33-0.71-0.81-1.3-1.45-1.77s-1.47-0.69-2.48-0.69c-1.07,0-1.92,0.24-2.56,0.71c-0.63,0.47-1.08,1.09-1.36,1.86
			c-0.27,0.77-0.43,1.59-0.47,2.48c-0.02,0.61-0.02,1.22,0,1.83c0.04,0.88,0.2,1.71,0.47,2.48c0.27,0.77,0.73,1.39,1.36,1.86
			C495.8,605.54,496.65,605.78,497.72,605.78z"/>
		<path class="st0" d="M510.31,588.55c-0.21,0-0.38-0.07-0.52-0.21c-0.14-0.14-0.21-0.31-0.21-0.52v-1.7c0-0.21,0.07-0.39,0.21-0.54
			c0.14-0.15,0.31-0.22,0.52-0.22h1.99c0.21,0,0.39,0.07,0.54,0.22c0.15,0.15,0.22,0.33,0.22,0.54v1.7c0,0.21-0.07,0.38-0.22,0.52
			c-0.15,0.14-0.33,0.21-0.54,0.21H510.31z M510.56,608.02c-0.21,0-0.38-0.07-0.52-0.21c-0.14-0.14-0.21-0.31-0.21-0.52v-14.96
			c0-0.21,0.07-0.38,0.21-0.52c0.14-0.14,0.31-0.21,0.52-0.21h1.51c0.21,0,0.38,0.07,0.52,0.21c0.14,0.14,0.21,0.31,0.21,0.52v14.96
			c0,0.21-0.07,0.38-0.21,0.52c-0.14,0.14-0.31,0.21-0.52,0.21H510.56z"/>
		<path class="st0" d="M523.18,608.02c-0.32,0-0.56-0.07-0.74-0.22s-0.32-0.34-0.43-0.57l-5.84-14.64c-0.04-0.1-0.06-0.21-0.06-0.32
			c0-0.19,0.06-0.35,0.19-0.47c0.13-0.13,0.28-0.19,0.47-0.19h1.51c0.23,0,0.41,0.06,0.54,0.19c0.13,0.13,0.21,0.24,0.25,0.35
			l4.8,12.43l4.8-12.43c0.04-0.1,0.12-0.22,0.24-0.35s0.29-0.19,0.52-0.19h1.55c0.17,0,0.32,0.06,0.46,0.19
			c0.14,0.13,0.21,0.28,0.21,0.47c0,0.11-0.02,0.21-0.06,0.32l-5.87,14.64c-0.08,0.23-0.22,0.42-0.39,0.57
			c-0.18,0.15-0.44,0.22-0.77,0.22H523.18z"/>
		<path class="st0" d="M535.43,588.55c-0.21,0-0.38-0.07-0.52-0.21c-0.14-0.14-0.21-0.31-0.21-0.52v-1.7c0-0.21,0.07-0.39,0.21-0.54
			c0.14-0.15,0.31-0.22,0.52-0.22h1.99c0.21,0,0.39,0.07,0.54,0.22c0.15,0.15,0.22,0.33,0.22,0.54v1.7c0,0.21-0.07,0.38-0.22,0.52
			c-0.15,0.14-0.33,0.21-0.54,0.21H535.43z M535.68,608.02c-0.21,0-0.38-0.07-0.52-0.21c-0.14-0.14-0.21-0.31-0.21-0.52v-14.96
			c0-0.21,0.07-0.38,0.21-0.52c0.14-0.14,0.31-0.21,0.52-0.21h1.51c0.21,0,0.38,0.07,0.52,0.21c0.14,0.14,0.21,0.31,0.21,0.52v14.96
			c0,0.21-0.07,0.38-0.21,0.52c-0.14,0.14-0.31,0.21-0.52,0.21H535.68z"/>
		<path class="st0" d="M548.27,608.33c-1.18,0-2.19-0.15-3.03-0.44c-0.84-0.29-1.53-0.65-2.05-1.07c-0.53-0.42-0.92-0.84-1.18-1.26
			s-0.41-0.76-0.43-1.01c-0.02-0.23,0.05-0.41,0.22-0.54c0.17-0.13,0.34-0.19,0.5-0.19h1.42c0.11,0,0.19,0.02,0.27,0.05
			c0.07,0.03,0.17,0.12,0.3,0.27c0.27,0.29,0.58,0.59,0.92,0.88c0.34,0.29,0.75,0.54,1.25,0.73s1.11,0.28,1.85,0.28
			c1.07,0,1.96-0.21,2.65-0.62s1.04-1.01,1.04-1.81c0-0.53-0.14-0.95-0.43-1.26s-0.79-0.6-1.51-0.85c-0.73-0.25-1.72-0.52-2.98-0.79
			c-1.26-0.29-2.26-0.66-3-1.09c-0.74-0.43-1.26-0.95-1.58-1.55s-0.47-1.28-0.47-2.04c0-0.78,0.23-1.53,0.69-2.26
			s1.14-1.32,2.04-1.78c0.89-0.46,2.01-0.69,3.36-0.69c1.09,0,2.03,0.14,2.81,0.41c0.78,0.27,1.42,0.62,1.92,1.03
			s0.88,0.82,1.14,1.21c0.25,0.4,0.39,0.74,0.41,1.01c0.02,0.21-0.04,0.38-0.19,0.52c-0.15,0.14-0.32,0.21-0.5,0.21h-1.33
			c-0.15,0-0.27-0.03-0.36-0.09s-0.18-0.14-0.27-0.22c-0.21-0.27-0.46-0.55-0.74-0.82c-0.28-0.27-0.65-0.5-1.1-0.68
			c-0.45-0.18-1.05-0.27-1.78-0.27c-1.05,0-1.84,0.22-2.37,0.66c-0.53,0.44-0.79,1-0.79,1.67c0,0.4,0.12,0.76,0.35,1.07
			c0.23,0.32,0.67,0.6,1.33,0.85c0.65,0.25,1.62,0.53,2.9,0.82c1.39,0.27,2.48,0.64,3.28,1.1c0.8,0.46,1.37,1,1.7,1.61
			c0.34,0.61,0.5,1.31,0.5,2.11c0,0.88-0.25,1.69-0.76,2.43s-1.26,1.32-2.27,1.75S549.74,608.33,548.27,608.33z"/>
		<path class="st0" d="M559.15,588.55c-0.21,0-0.38-0.07-0.52-0.21s-0.21-0.31-0.21-0.52v-1.7c0-0.21,0.07-0.39,0.21-0.54
			s0.31-0.22,0.52-0.22h1.99c0.21,0,0.39,0.07,0.54,0.22s0.22,0.33,0.22,0.54v1.7c0,0.21-0.07,0.38-0.22,0.52s-0.33,0.21-0.54,0.21
			H559.15z M559.4,608.02c-0.21,0-0.38-0.07-0.52-0.21s-0.21-0.31-0.21-0.52v-14.96c0-0.21,0.07-0.38,0.21-0.52s0.31-0.21,0.52-0.21
			h1.51c0.21,0,0.38,0.07,0.52,0.21s0.21,0.31,0.21,0.52v14.96c0,0.21-0.07,0.38-0.21,0.52s-0.31,0.21-0.52,0.21H559.4z"/>
		<path class="st0" d="M573.04,608.33c-1.6,0-2.93-0.3-4.01-0.92c-1.07-0.61-1.89-1.46-2.46-2.54c-0.57-1.08-0.88-2.32-0.95-3.71
			c-0.02-0.36-0.03-0.82-0.03-1.37c0-0.56,0.01-1,0.03-1.34c0.06-1.41,0.38-2.65,0.96-3.72c0.58-1.07,1.4-1.91,2.48-2.52
			c1.07-0.61,2.4-0.92,3.98-0.92c1.58,0,2.9,0.3,3.98,0.92c1.07,0.61,1.9,1.45,2.48,2.52c0.58,1.07,0.9,2.31,0.96,3.72
			c0.02,0.34,0.03,0.78,0.03,1.34c0,0.56-0.01,1.02-0.03,1.37c-0.06,1.39-0.38,2.62-0.95,3.71c-0.57,1.08-1.39,1.93-2.46,2.54
			C575.97,608.03,574.63,608.33,573.04,608.33z M573.04,605.9c1.3,0,2.34-0.42,3.12-1.25c0.78-0.83,1.2-2.05,1.26-3.64
			c0.02-0.32,0.03-0.71,0.03-1.2c0-0.48-0.01-0.88-0.03-1.2c-0.06-1.6-0.48-2.81-1.26-3.64c-0.78-0.83-1.82-1.25-3.12-1.25
			c-1.3,0-2.35,0.42-3.14,1.25s-1.2,2.05-1.25,3.64c-0.02,0.32-0.03,0.71-0.03,1.2c0,0.48,0.01,0.88,0.03,1.2
			c0.04,1.6,0.46,2.81,1.25,3.64S571.73,605.9,573.04,605.9z"/>
		<path class="st0" d="M585.15,608.02c-0.21,0-0.38-0.07-0.52-0.21s-0.21-0.31-0.21-0.52v-14.96c0-0.21,0.07-0.38,0.21-0.52
			s0.31-0.21,0.52-0.21h1.48c0.21,0,0.38,0.07,0.52,0.21c0.14,0.14,0.21,0.31,0.21,0.52v1.39c0.55-0.71,1.24-1.3,2.07-1.75
			c0.83-0.45,1.9-0.68,3.2-0.68c1.37,0,2.53,0.3,3.49,0.9c0.96,0.6,1.68,1.43,2.18,2.49c0.49,1.06,0.74,2.3,0.74,3.71v8.9
			c0,0.21-0.07,0.38-0.21,0.52s-0.31,0.21-0.52,0.21h-1.58c-0.21,0-0.38-0.07-0.52-0.21c-0.14-0.14-0.21-0.31-0.21-0.52v-8.74
			c0-1.47-0.36-2.62-1.07-3.46s-1.77-1.25-3.16-1.25c-1.3,0-2.35,0.42-3.14,1.25c-0.79,0.83-1.18,1.98-1.18,3.46v8.74
			c0,0.21-0.07,0.38-0.21,0.52c-0.14,0.14-0.31,0.21-0.52,0.21H585.15z"/>
		<path class="st0" d="M618,608.33c-1.6,0-2.93-0.3-4.01-0.92c-1.07-0.61-1.89-1.46-2.46-2.54c-0.57-1.08-0.88-2.32-0.95-3.71
			c-0.02-0.36-0.03-0.82-0.03-1.37c0-0.56,0.01-1,0.03-1.34c0.06-1.41,0.38-2.65,0.96-3.72c0.58-1.07,1.4-1.91,2.48-2.52
			c1.07-0.61,2.4-0.92,3.98-0.92c1.58,0,2.9,0.3,3.98,0.92c1.07,0.61,1.9,1.45,2.48,2.52c0.58,1.07,0.9,2.31,0.96,3.72
			c0.02,0.34,0.03,0.78,0.03,1.34c0,0.56-0.01,1.02-0.03,1.37c-0.06,1.39-0.38,2.62-0.95,3.71c-0.57,1.08-1.39,1.93-2.46,2.54
			C620.93,608.03,619.59,608.33,618,608.33z M618,605.9c1.3,0,2.34-0.42,3.12-1.25c0.78-0.83,1.2-2.05,1.26-3.64
			c0.02-0.32,0.03-0.71,0.03-1.2c0-0.48-0.01-0.88-0.03-1.2c-0.06-1.6-0.48-2.81-1.26-3.64c-0.78-0.83-1.82-1.25-3.12-1.25
			c-1.3,0-2.35,0.42-3.14,1.25s-1.2,2.05-1.25,3.64c-0.02,0.32-0.03,0.71-0.03,1.2c0,0.48,0.01,0.88,0.03,1.2
			c0.04,1.6,0.46,2.81,1.25,3.64S616.69,605.9,618,605.9z"/>
		<path class="st0" d="M631.56,608.02c-0.21,0-0.38-0.07-0.52-0.21s-0.21-0.31-0.21-0.52v-13.16h-2.68c-0.21,0-0.38-0.07-0.52-0.21
			c-0.14-0.14-0.21-0.31-0.21-0.52v-1.07c0-0.21,0.07-0.38,0.21-0.52c0.14-0.14,0.31-0.21,0.52-0.21h2.68v-1.58
			c0-1.07,0.18-2.01,0.54-2.82s0.93-1.44,1.72-1.88c0.79-0.44,1.85-0.66,3.17-0.66h1.89c0.21,0,0.38,0.07,0.52,0.21
			s0.21,0.31,0.21,0.52v1.07c0,0.21-0.07,0.38-0.21,0.52s-0.31,0.21-0.52,0.21h-1.83c-0.99,0-1.66,0.26-2.02,0.77
			c-0.36,0.52-0.54,1.26-0.54,2.22v1.42h4.07c0.21,0,0.38,0.07,0.52,0.21s0.21,0.31,0.21,0.52v1.07c0,0.21-0.07,0.38-0.21,0.52
			s-0.31,0.21-0.52,0.21h-4.07v13.16c0,0.21-0.07,0.38-0.21,0.52c-0.14,0.14-0.31,0.21-0.52,0.21H631.56z"/>
	</g>
	<g>
		<g>
			<path class="st2" d="M705.92,608.28c-4.78,0-8.91-3.74-8.91-11.78c0-8.05,4.12-11.79,8.91-11.79c1.87,0,3.46,0.38,4.85,1.17
				l-0.67,1.59c-1.11-0.67-2.47-1.05-4.06-1.05c-3.8,0-7.03,3.11-7.03,10.08c0,6.97,3.23,10.04,7.03,10.04
				c1.59,0,2.95-0.35,4.06-1.01l0.67,1.59C709.37,607.9,707.78,608.28,705.92,608.28z"/>
			<path class="st2" d="M714.35,608.31v-24.38h1.83v24.38H714.35z"/>
			<path class="st2" d="M742.06,608.31c-3.94,0-6.18-1.83-6.18-5.71v-11.02h1.83v11.05c0,2.8,1.46,4.13,4.35,4.13
				c1.74,0,3.26-0.34,4.01-0.68v-14.5h1.83v15.59C746.69,607.78,744.46,608.31,742.06,608.31z"/>
			<path class="st2" d="M761.39,583.93v7.79c-1.15-0.29-2.55-0.49-4.01-0.49c-3.94,0-5.57,1.86-6.18,5.71c0,0-0.17,1.31-0.17,2.99
				c0,1.69,0.17,2.66,0.17,2.66c0.65,3.91,2.24,5.71,6.18,5.71c2.39,0,4.63-0.53,5.84-1.49v-22.89H761.39z M761.39,606.07
				c-0.75,0.34-2.27,0.68-4.01,0.68c-2.89,0-3.95-1.37-4.35-4.13c0,0-0.17-1.01-0.17-2.69c0-1.67,0.17-3.02,0.17-3.02
				c0.55-2.74,1.46-4.13,4.35-4.13c1.74,0,3.26,0.34,4.01,0.68V606.07z"/>
			<path class="st2" d="M766.73,608.31v-24.38h3.51v21.43h7.73v2.95H766.73z"/>
			<path class="st2" d="M782.88,588.53c-1.12,0-2.02-0.87-2.02-1.93c0-1.06,0.9-1.93,2.02-1.93c1.12,0,2.02,0.87,2.02,1.93
				C784.9,587.66,784,588.53,782.88,588.53z M781.17,608.31v-16.74h3.42v16.74H781.17z"/>
			<path class="st2" d="M798.06,608.31v-10.84c0-1.95-1.18-3.17-3.51-3.17c-1.24,0-2.39,0.22-3.08,0.5v13.51h-3.38v-15.56
				c1.68-0.68,3.82-1.18,6.43-1.18c4.69,0,6.96,2.05,6.96,5.59v11.15H798.06z"/>
			<path class="st2" d="M811.76,608.31c-4.41,0-6.77-1.83-6.77-6.03v-10.71h3.39v10.77c0,2.14,1.15,3.17,3.39,3.17
				c1.3,0,2.42-0.22,2.98-0.47v-13.48h3.39v15.56C816.76,607.81,814.31,608.31,811.76,608.31z"/>
			<path class="st2" d="M832.21,608.31l-3.91-6.37h-0.06l-3.91,6.37h-3.88l5.75-8.7l-5.28-8.04h3.82l3.51,5.83h0.06l3.51-5.83h3.82
				l-5.28,8.04l5.75,8.7H832.21z"/>
			<path class="st2" d="M732.2,596.94c-0.62-3.86-2.24-5.71-6.18-5.71c-3.94,0-5.56,1.86-6.18,5.71c0,0-0.17,1.31-0.17,2.99
				c0,1.69,0.17,2.66,0.17,2.66c0.65,3.91,2.24,5.71,6.18,5.71c3.94,0,5.53-1.81,6.18-5.71c0,0,0.17-0.97,0.17-2.66
				C732.37,598.25,732.2,596.94,732.2,596.94z M730.37,602.62c-0.39,2.76-1.46,4.13-4.35,4.13c-2.89,0-3.96-1.37-4.35-4.13
				c0,0-0.17-1.01-0.17-2.69c0-1.67,0.17-3.02,0.17-3.02c0.54-2.74,1.46-4.13,4.35-4.13c2.89,0,3.8,1.39,4.35,4.13
				c0,0,0.17,1.35,0.17,3.02C730.54,601.61,730.37,602.62,730.37,602.62z"/>
		</g>
		<g>
			<path class="st2" d="M838.17,590.36c-0.06,0.39-0.11,0.78-0.17,1.19c-0.11,0-0.21,0-0.35,0c0.07-0.55,0.14-1.08,0.23-1.6
				c0.01-0.05,0.19-0.12,0.28-0.11c0.1,0.01,0.24,0.08,0.28,0.16c0.13,0.31,0.23,0.64,0.42,0.97c0.1-0.27,0.22-0.53,0.28-0.81
				c0.07-0.33,0.27-0.39,0.62-0.3c0.08,0.54,0.15,1.1,0.23,1.66c-0.25,0.09-0.36,0.05-0.38-0.19c-0.03-0.33-0.09-0.65-0.21-0.98
				c-0.11,0.32-0.22,0.64-0.35,0.96c-0.04,0.1-0.15,0.17-0.23,0.26c-0.08-0.09-0.19-0.16-0.24-0.26c-0.13-0.31-0.23-0.64-0.34-0.95
				C838.22,590.36,838.19,590.36,838.17,590.36z"/>
			<path class="st2" d="M837.46,590.07c-0.46,0.07-0.46,0.07-0.46,0.51c0,0.23-0.01,0.47,0,0.7c0.01,0.25-0.08,0.35-0.41,0.25
				c0-0.37-0.01-0.74,0-1.12c0-0.19-0.02-0.33-0.29-0.31c-0.07,0-0.14-0.08-0.21-0.12c0.07-0.05,0.14-0.14,0.22-0.14
				c0.31-0.02,0.63,0,0.95-0.01C837.48,589.82,837.53,589.91,837.46,590.07z"/>
		</g>
		<g>
			<path class="st2" d="M666.94,576.02c0.54-0.14,1.06-0.27,1.58-0.41c1.03-0.28,2.08-0.39,3.15-0.39c2.4,0.02,4.65,0.6,6.71,1.82
				c3.53,2.1,5.7,5.19,6.51,9.22c0.12,0.58,0.01,1.15-0.08,1.71c-0.47,2.79-1.72,5.17-3.73,7.16c-0.08,0.08-0.16,0.16-0.25,0.23
				c-0.01,0.01-0.02,0.01-0.06,0.03c0.08-0.28,0.16-0.54,0.23-0.8c0.32-1.12,0.49-2.26,0.53-3.42c0.08-2.04-0.24-4.02-1.01-5.92
				c-0.21-0.52-0.49-1.02-0.83-1.46c-0.79-1.06-1.57-2.14-2.46-3.11c-2.21-2.4-4.96-3.85-8.17-4.42
				C668.39,576.15,667.68,576.1,666.94,576.02z"/>
			<path class="st2" d="M678.02,589.07c-2.34-4.35-5.87-7.1-10.74-7.99c-4.87-0.89-9.12,0.44-12.84,3.68
				c0.17-0.31,0.34-0.63,0.52-0.93c2.07-3.34,5.02-5.48,8.87-6.24c3.88-0.76,7.49,0,10.76,2.26c0.32,0.22,0.57,0.55,0.81,0.87
				c1.35,1.78,2.21,3.77,2.5,5.98c0.1,0.73,0.1,1.47,0.14,2.21C678.05,588.95,678.03,589,678.02,589.07z"/>
			<path class="st2" d="M671.2,586.38c-4.63-1.41-9.05-0.93-13.08,1.86c-4.03,2.79-6.04,6.74-6.35,11.63
				c-0.04-0.12-0.07-0.21-0.1-0.31c-0.03-0.1-0.07-0.2-0.1-0.31c-0.37-1.32-0.58-2.67-0.52-4.05c0.14-3.48,1.38-6.5,3.8-9.02
				c1.77-1.84,3.89-3.07,6.36-3.7c0.4-0.1,0.8-0.21,1.21-0.24c0.36-0.03,0.73,0.02,1.09,0.07c2.59,0.37,4.86,1.42,6.81,3.16
				C670.64,585.77,670.92,586.09,671.2,586.38z"/>
			<path class="st2" d="M682.27,578.83c1.48,0.72,2.77,1.69,3.89,2.88c1.84,1.97,3,4.28,3.43,6.94c0.59,3.66-0.15,7.03-2.29,10.07
				c-0.28,0.4-0.71,0.7-1.11,0.99c-1.82,1.32-3.85,2.11-6.08,2.36c-0.67,0.08-1.36,0.08-2.03,0.1c4.3-2.32,7.09-5.79,7.96-10.62
				C686.9,586.72,685.52,582.5,682.27,578.83z"/>
			<path class="st2" d="M664.75,589.13c-4.28,2.3-7.07,5.76-7.95,10.59c-0.87,4.81,0.5,9.03,3.72,12.67
				c-0.01,0.02-0.02,0.03-0.03,0.05c-0.58-0.36-1.18-0.69-1.73-1.08c-2.77-1.97-4.6-4.61-5.35-7.93c-0.9-3.96-0.17-7.63,2.17-10.97
				c0.08-0.11,0.18-0.21,0.29-0.3c1.97-1.66,4.24-2.66,6.8-2.96c0.69-0.08,1.39-0.09,2.08-0.13
				C664.74,589.09,664.74,589.11,664.75,589.13z"/>
			<path class="st2" d="M675.61,615.09c-0.38,0.11-0.76,0.22-1.14,0.32c-1.22,0.31-2.47,0.45-3.72,0.37
				c-4.65-0.28-8.27-2.38-10.83-6.26c-1-1.51-1.62-3.17-1.9-4.96c-0.06-0.41,0-0.86,0.06-1.28c0.33-2.3,1.22-4.37,2.68-6.19
				c0.39-0.49,0.84-0.93,1.27-1.38c0.03-0.03,0.07-0.05,0.11-0.09c-1.42,4.67-0.93,9.09,1.86,13.12
				C666.77,612.76,670.73,614.79,675.61,615.09z"/>
			<path class="st2" d="M664.86,602.09c2.31,4.31,5.78,7.09,10.59,7.96c4.82,0.87,9.04-0.5,12.7-3.73
				c-0.17,0.31-0.33,0.62-0.51,0.92c-1.94,3.17-4.7,5.28-8.31,6.16c-3.97,0.97-7.66,0.26-11.04-2.06c-0.16-0.11-0.3-0.25-0.43-0.4
				c-1.52-1.82-2.48-3.91-2.86-6.25c-0.13-0.82-0.18-1.65-0.16-2.48C664.85,602.18,664.85,602.15,664.86,602.09z"/>
			<path class="st2" d="M691.2,591.17c0.16,0.71,0.35,1.41,0.48,2.12c0.21,1.16,0.23,2.33,0.12,3.5c-0.18,1.87-0.73,3.64-1.67,5.28
				c-1.53,2.68-3.72,4.63-6.57,5.84c-0.95,0.41-1.94,0.71-2.96,0.84c-0.4,0.05-0.83-0.01-1.24-0.07c-2-0.29-3.84-1.01-5.51-2.16
				c-0.75-0.52-1.44-1.11-2.07-1.78c-0.03-0.03-0.06-0.07-0.09-0.11c4.66,1.41,9.08,0.94,13.11-1.85c4.03-2.78,6.05-6.74,6.35-11.59
				C691.16,591.18,691.18,591.17,691.2,591.17z"/>
			<path class="st2" d="M665.99,601.51c0.86,0.78,1.8,1.46,2.8,2.04c0.06,0.04,0.11,0.1,0.15,0.16c1.24,1.88,2.82,3.4,4.76,4.54
				c0.03,0.02,0.07,0.04,0.09,0.08C670.28,607.1,667.68,604.83,665.99,601.51z"/>
			<path class="st2" d="M676.9,589.48c-0.28-0.23-0.54-0.49-0.84-0.7c-0.61-0.44-1.24-0.85-1.86-1.27c-0.08-0.06-0.17-0.12-0.22-0.2
				c-1.23-1.87-2.79-3.37-4.71-4.52c-0.04-0.03-0.08-0.05-0.11-0.1C672.64,583.92,675.23,586.18,676.9,589.48z"/>
			<path class="st2" d="M684.42,592.95c-1.24,3.51-3.5,6.1-6.81,7.78c0.03-0.04,0.06-0.08,0.09-0.12c0.72-0.79,1.34-1.65,1.87-2.57
				c0.05-0.08,0.12-0.17,0.2-0.22c1.89-1.24,3.41-2.83,4.55-4.78c0.02-0.03,0.03-0.05,0.05-0.08
				C684.38,592.95,684.39,592.96,684.42,592.95z"/>
			<path class="st2" d="M665.3,590.27c-0.4,0.51-0.8,1-1.18,1.52c-0.27,0.37-0.49,0.77-0.74,1.14c-0.07,0.11-0.17,0.22-0.28,0.3
				c-1.84,1.22-3.32,2.77-4.45,4.67c-0.03,0.05-0.07,0.1-0.12,0.18C659.5,594.93,662.04,591.83,665.3,590.27z"/>
			<path class="st2" d="M660.54,588.3c3.33-1.62,6.76-1.84,10.28-0.71c-1.02,0.06-2.02,0.19-3.01,0.45
				c-0.33,0.09-0.65,0.09-0.98,0.03c-2.07-0.39-4.14-0.32-6.18,0.21C660.61,588.29,660.57,588.29,660.54,588.3z"/>
			<path class="st2" d="M663.31,596.04c0.08,0.65,0.14,1.3,0.24,1.96c0.06,0.42,0.17,0.84,0.27,1.26c0.05,0.18,0.05,0.35,0.01,0.54
				c-0.27,1.3-0.37,2.62-0.24,3.94c0.09,0.88,0.26,1.75,0.37,2.5c-0.39-0.64-1.19-2.75-1.33-4.96
				C662.53,599.48,662.75,597.73,663.31,596.04z"/>
			<path class="st2" d="M678.89,584.63c1.61,3.39,1.84,6.83,0.72,10.35c-0.09-0.72-0.18-1.43-0.28-2.15c-0.04-0.3-0.1-0.6-0.2-0.89
				c-0.1-0.31-0.08-0.61-0.02-0.93c0.29-1.5,0.34-3,0.12-4.51C679.14,585.9,679.01,585.29,678.89,584.63z"/>
			<path class="st2" d="M672.08,603.42c1.16-0.04,2.29-0.25,3.42-0.53c0.15-0.04,0.32,0.02,0.48,0.05c2.13,0.41,4.24,0.33,6.33-0.2
				c0.04-0.01,0.07-0.02,0.11-0.01C679.07,604.34,675.62,604.56,672.08,603.42z"/>
		</g>
	</g>
</g>
</svg>
