<svg width="1274" height="294" viewBox="0 0 1274 294" fill="none" xmlns="http://www.w3.org/2000/svg">
<path d="M64.2195 235.122C62.6058 236.946 61.834 238.77 60.992 240.665C60.0097 242.84 58.3257 243.822 55.9402 243.822C53.4844 243.822 51.5198 242.98 50.3972 240.735C49.6955 239.261 48.9939 237.718 48.9939 236.034C48.5729 222.843 48.8536 209.722 52.7126 196.952C54.3965 191.058 56.4313 185.305 59.5185 180.043C62.7461 174.43 64.2195 168.395 65.2018 162.151C68.2189 142.856 73.1304 124.052 82.9534 106.861C89.6892 95.1439 98.8105 86.233 112.984 84.4789C126.525 82.6547 137.822 87.496 145.961 98.4416C152.276 107.002 159.713 113.527 170.518 115.913C173.044 116.404 175.36 117.737 177.605 118.93C179.85 120.122 181.675 122.017 180.692 124.894C179.78 127.63 177.465 128.402 174.798 128.402C166.87 128.402 159.011 128.612 151.083 128.402C143.154 128.191 135.366 128.893 127.929 131.91C116.562 136.4 108.353 144.329 102.459 154.713C91.7239 173.728 89.2682 194.286 91.303 215.476C92.3554 226.491 95.0217 237.297 100.284 247.26C102.599 251.61 105.406 255.68 109.826 258.206C115.931 261.854 122.596 261.082 127.859 256.381C134.314 250.558 137.892 243.05 140.067 234.981C143.646 222.001 145.54 208.74 144.768 195.268C144.207 185.726 142.804 176.184 141.541 166.571C140.979 162.642 141.611 159.204 144.979 156.818C148.417 154.433 151.855 154.854 155.433 156.959C164.695 162.431 171.22 170.43 175.851 179.832C180.622 189.375 183.92 199.478 185.323 210.143C186.586 219.615 186.376 229.158 185.534 238.56C185.253 241.296 183.92 243.331 180.833 243.892C177.605 244.453 175.29 243.401 173.956 240.454C173.886 240.314 173.886 240.244 173.816 240.173C172.764 238.77 173.115 235.683 170.869 235.964C168.834 236.244 169.466 239.121 168.905 240.875C165.046 252.522 160.064 263.538 152.697 273.501C149.539 277.782 149.96 279.676 154.17 282.974C154.731 283.465 155.433 283.956 155.994 284.447C157.819 286.131 158.661 288.096 157.608 290.481C156.696 292.656 154.731 293.709 152.486 293.498C142.804 292.727 133.121 292.516 123.508 291.885C114.036 291.253 104.634 292.376 95.2322 292.516C91.2328 292.586 87.1633 293.218 83.0937 293.428C80.9186 293.568 79.0944 292.797 78.2524 290.551C77.3403 288.306 77.6911 286.131 79.3049 284.377C79.9363 283.675 80.9186 283.184 81.6905 282.483C85.6898 279.325 85.9705 277.01 82.8832 273.01C75.2353 263.117 69.8327 252.172 66.6051 240.103C65.9737 238.49 65.4825 236.806 64.2195 235.122Z" fill="#081C2E"/>
<path d="M0 132.883C0.350821 106.501 8.13906 82.2945 24.2067 61.0348C33.6789 48.4052 45.1858 37.8806 59.0783 30.0923C61.8147 28.5487 62.6567 27.2156 60.9026 24.2687C58.2364 19.5677 56.0613 14.5158 53.8862 9.60435C52.6232 6.79777 53.5353 4.06137 55.7104 2.0266C58.0259 -0.148489 60.9026 -0.499311 63.8495 0.623318C65.9544 1.39512 67.077 2.93874 68.0593 4.83318C70.2344 9.25353 72.4797 13.5335 74.5846 17.9539C75.7774 20.4798 77.1807 21.1815 80.1276 20.0588C99.4228 12.6916 119.49 10.5866 139.837 13.3231C159.203 15.9893 177.095 22.6549 193.162 33.811C197.442 36.6878 201.371 39.9153 205.301 43.2832C208.879 46.3003 208.388 51.1416 204.529 53.3869C202.705 54.4393 200.95 54.299 199.126 53.3167C196.46 51.9134 194.355 49.598 191.548 48.335C178.217 42.3009 165.658 43.7042 154.221 52.7554C147.345 58.158 145.38 65.8761 145.731 74.1555C145.801 76.9621 146.082 79.5581 143.486 81.3122C140.82 82.9962 138.224 82.4349 135.557 80.8913C121.104 73.0329 106.93 74.366 93.3185 82.7857C87.0739 86.5746 81.5309 91.3457 77.3912 97.45C74.5846 101.66 72.2692 106.01 72.4095 111.272C72.4797 113.658 71.5676 115.552 69.182 116.605C66.8666 117.728 64.7616 117.307 62.8672 115.833C60.8324 114.289 58.938 112.465 56.7629 111.132C45.3261 104.045 35.1523 106.08 23.8559 114.921C15.6466 121.446 12.4191 130.568 12.2086 140.741C12.1384 143.618 11.1561 145.723 8.41971 146.846C5.8938 147.828 3.78887 146.986 1.9646 145.162C1.19279 144.32 0.701643 143.337 0.631478 142.215C0.420986 139.057 0.210493 135.9 0 132.883Z" fill="#359CF3"/>
<path d="M224.941 254.443C225.854 269.669 214.908 283.211 202.98 287.35C197.016 289.385 190.912 288.964 185.018 287.771C176.528 285.947 168.95 282.088 162.074 276.966C159.619 275.142 158.847 273.528 160.952 270.932C164.39 266.582 166.775 261.74 168.67 256.689C169.512 254.303 170.634 254.233 172.178 256.198C174.002 258.583 175.897 260.969 177.721 263.284C181.861 268.546 187.263 270.23 193.648 268.476C199.542 266.862 202.84 262.653 203.752 256.829C204.313 253.04 203.12 249.462 201.156 246.024C197.156 238.797 200.665 231.5 208.593 230.167C212.593 229.465 216.031 230.798 218.416 234.026C222.837 240.13 225.503 246.936 224.941 254.443Z" fill="#359CF3"/>
<path d="M332.748 238.378C331.078 238.378 329.658 237.794 328.489 236.626C327.32 235.457 326.736 234.038 326.736 232.369V93.9177H280.394C278.724 93.9177 277.304 93.3335 276.135 92.1651C274.966 90.9967 274.382 89.578 274.382 87.9089V69.3819C274.382 67.5459 274.966 66.0437 276.135 64.8753C277.304 63.707 278.724 63.1228 280.394 63.1228H408.147C409.984 63.1228 411.487 63.707 412.656 64.8753C413.825 66.0437 414.409 67.5459 414.409 69.3819V87.9089C414.409 89.578 413.825 90.9967 412.656 92.1651C411.487 93.3335 409.984 93.9177 408.147 93.9177H362.056V232.369C362.056 234.038 361.471 235.457 360.302 236.626C359.133 237.794 357.63 238.378 355.793 238.378H332.748Z" fill="#359CF3"/>
<path d="M469.266 240.882C459.079 240.882 450.228 238.628 442.714 234.122C435.366 229.448 429.688 222.939 425.68 214.593C421.672 206.081 419.668 196.066 419.668 184.55V114.197C419.668 112.528 420.252 111.109 421.421 109.941C422.59 108.773 424.01 108.188 425.68 108.188H447.723C449.56 108.188 450.98 108.773 451.982 109.941C453.151 111.109 453.735 112.528 453.735 114.197V183.048C453.735 203.744 462.837 214.093 481.039 214.093C489.723 214.093 496.57 211.339 501.58 205.831C506.757 200.323 509.346 192.728 509.346 183.048V114.197C509.346 112.528 509.93 111.109 511.099 109.941C512.268 108.773 513.688 108.188 515.357 108.188H537.401C539.071 108.188 540.491 108.773 541.66 109.941C542.829 111.109 543.413 112.528 543.413 114.197V232.369C543.413 234.038 542.829 235.457 541.66 236.626C540.491 237.794 539.071 238.378 537.401 238.378H517.111C515.274 238.378 513.771 237.794 512.602 236.626C511.6 235.457 511.099 234.038 511.099 232.369V222.104C506.59 227.946 500.996 232.536 494.316 235.874C487.636 239.213 479.286 240.882 469.266 240.882Z" fill="#359CF3"/>
<path d="M570.991 238.378C569.488 238.378 568.152 237.877 566.983 236.876C565.981 235.708 565.48 234.372 565.48 232.87C565.48 232.369 565.564 231.785 565.731 231.118C566.065 230.45 566.566 229.615 567.234 228.614L609.818 171.531L570.24 117.953C569.739 117.118 569.321 116.367 568.987 115.699C568.82 115.032 568.737 114.364 568.737 113.696C568.737 112.194 569.238 110.942 570.24 109.941C571.409 108.773 572.745 108.188 574.248 108.188H596.041C598.045 108.188 599.548 108.689 600.55 109.691C601.552 110.692 602.303 111.61 602.804 112.445L631.11 149.999L659.416 112.445C660.084 111.61 660.836 110.692 661.671 109.691C662.673 108.689 664.176 108.188 666.18 108.188H686.971C688.474 108.188 689.726 108.773 690.728 109.941C691.897 110.942 692.482 112.111 692.482 113.446C692.482 114.281 692.315 115.032 691.981 115.699C691.814 116.367 691.48 117.118 690.979 117.953L650.899 172.031L693.734 228.614C694.402 229.615 694.82 230.45 694.987 231.118C695.321 231.785 695.488 232.369 695.488 232.87C695.488 234.372 694.903 235.708 693.734 236.876C692.732 237.877 691.48 238.378 689.977 238.378H667.182C665.345 238.378 663.925 237.961 662.923 237.126C661.921 236.125 661.086 235.207 660.418 234.372L630.359 194.564L599.798 234.372C599.13 235.207 598.295 236.125 597.293 237.126C596.458 237.961 595.039 238.378 593.035 238.378H570.991Z" fill="#359CF3"/>
<path d="M808.575 240.882C793.044 240.882 779.852 238.211 768.997 232.87C758.309 227.362 750.126 219.601 744.448 209.586C738.77 199.405 735.597 187.22 734.929 173.033C734.762 166.19 734.679 158.846 734.679 151.001C734.679 143.156 734.762 135.645 734.929 128.468C735.597 114.448 738.77 102.347 744.448 92.1651C750.293 81.9836 758.559 74.2223 769.247 68.8812C780.102 63.3732 793.211 60.6191 808.575 60.6191C819.931 60.6191 830.118 62.1213 839.136 65.1257C848.154 68.1301 855.835 72.3028 862.181 77.644C868.527 82.8182 873.454 88.9104 876.961 95.9206C880.468 102.931 882.305 110.525 882.472 118.704C882.639 120.206 882.138 121.458 880.969 122.459C879.967 123.461 878.714 123.961 877.211 123.961H853.414C851.577 123.961 850.074 123.544 848.905 122.71C847.736 121.708 846.901 120.122 846.4 117.953C843.728 106.937 839.136 99.4257 832.623 95.4198C826.11 91.414 818.01 89.4111 808.325 89.4111C797.136 89.4111 788.201 92.5824 781.522 98.9249C774.842 105.101 771.251 115.366 770.75 129.72C770.249 143.406 770.249 157.427 770.75 171.781C771.251 186.135 774.842 196.484 781.522 202.826C788.201 209.002 797.136 212.09 808.325 212.09C818.01 212.09 826.11 210.087 832.623 206.081C839.136 201.908 843.728 194.397 846.4 183.548C846.901 181.212 847.736 179.626 848.905 178.791C850.074 177.957 851.577 177.539 853.414 177.539H877.211C878.714 177.539 879.967 178.04 880.969 179.042C882.138 180.043 882.639 181.295 882.472 182.797C882.305 190.976 880.468 198.57 876.961 205.58C873.454 212.591 868.527 218.766 862.181 224.107C855.835 229.282 848.154 233.371 839.136 236.375C830.118 239.38 819.931 240.882 808.575 240.882Z" fill="#081C2E"/>
<path d="M946.998 240.882C938.314 240.882 930.465 239.213 923.451 235.874C916.437 232.369 910.843 227.779 906.668 222.104C902.66 216.263 900.656 209.753 900.656 202.576C900.656 190.892 905.332 181.629 914.684 174.785C924.203 167.775 936.727 163.102 952.258 160.765L986.576 155.758V150.5C986.576 143.49 984.823 138.065 981.316 134.226C977.809 130.387 971.797 128.468 963.28 128.468C957.268 128.468 952.342 129.72 948.501 132.223C944.827 134.56 942.071 137.731 940.234 141.737C938.898 143.907 936.978 144.992 934.473 144.992H914.684C912.847 144.992 911.427 144.491 910.425 143.49C909.59 142.488 909.173 141.153 909.173 139.484C909.34 136.813 910.425 133.559 912.429 129.72C914.433 125.881 917.606 122.209 921.948 118.704C926.29 115.032 931.885 111.944 938.731 109.44C945.578 106.937 953.845 105.685 963.531 105.685C974.051 105.685 982.902 107.02 990.083 109.691C997.431 112.194 1003.28 115.616 1007.62 119.956C1011.96 124.295 1015.13 129.386 1017.14 135.228C1019.14 141.07 1020.14 147.245 1020.14 153.755V232.369C1020.14 234.038 1019.56 235.457 1018.39 236.626C1017.22 237.794 1015.8 238.378 1014.13 238.378H993.841C992.004 238.378 990.501 237.794 989.332 236.626C988.33 235.457 987.829 234.038 987.829 232.369V222.605C985.658 225.776 982.735 228.781 979.061 231.618C975.387 234.289 970.878 236.542 965.535 238.378C960.358 240.047 954.179 240.882 946.998 240.882ZM955.515 217.097C961.36 217.097 966.62 215.845 971.296 213.342C976.139 210.838 979.896 206.999 982.568 201.825C985.407 196.484 986.827 189.807 986.827 181.796V176.538L961.777 180.544C951.924 182.046 944.576 184.466 939.733 187.804C934.89 191.143 932.469 195.232 932.469 200.072C932.469 203.744 933.555 206.916 935.725 209.586C938.063 212.09 940.986 214.009 944.493 215.345C948 216.513 951.674 217.097 955.515 217.097Z" fill="#081C2E"/>
<path d="M1058.29 238.378C1056.62 238.378 1055.2 237.794 1054.03 236.626C1052.86 235.457 1052.28 234.038 1052.28 232.369V114.448C1052.28 112.612 1052.86 111.109 1054.03 109.941C1055.2 108.773 1056.62 108.188 1058.29 108.188H1078.58C1080.25 108.188 1081.67 108.773 1082.84 109.941C1084.18 111.109 1084.84 112.612 1084.84 114.448V124.713C1088.68 119.371 1093.61 115.282 1099.62 112.445C1105.8 109.607 1112.9 108.188 1120.91 108.188H1131.19C1133.02 108.188 1134.44 108.773 1135.44 109.941C1136.61 111.109 1137.2 112.528 1137.2 114.197V132.223C1137.2 133.893 1136.61 135.311 1135.44 136.48C1134.44 137.648 1133.02 138.232 1131.19 138.232H1111.65C1103.63 138.232 1097.37 140.485 1092.86 144.992C1088.52 149.499 1086.35 155.674 1086.35 163.519V232.369C1086.35 234.038 1085.76 235.457 1084.59 236.626C1083.42 237.794 1081.92 238.378 1080.08 238.378H1058.29Z" fill="#081C2E"/>
<path d="M1211.13 240.882C1192.6 240.882 1177.9 235.541 1167.05 224.858C1156.19 214.176 1150.35 198.987 1149.51 179.292C1149.34 177.623 1149.26 175.537 1149.26 173.033C1149.26 170.362 1149.34 168.276 1149.51 166.774C1150.18 154.256 1153.02 143.406 1158.03 134.226C1163.2 125.046 1170.3 118.036 1179.32 113.196C1188.34 108.188 1198.94 105.685 1211.13 105.685C1224.66 105.685 1236.02 108.522 1245.2 114.197C1254.38 119.705 1261.32 127.467 1265.99 137.481C1270.67 147.329 1273.01 158.762 1273.01 171.781V177.039C1273.01 178.708 1272.42 180.127 1271.25 181.295C1270.08 182.463 1268.58 183.048 1266.74 183.048H1183.58C1183.58 183.048 1183.58 183.298 1183.58 183.799C1183.58 184.299 1183.58 184.717 1183.58 185.05C1183.74 190.892 1184.83 196.317 1186.83 201.324C1189.01 206.165 1192.09 210.087 1196.1 213.091C1200.28 216.096 1205.2 217.598 1210.88 217.598C1215.56 217.598 1219.48 216.93 1222.66 215.595C1225.83 214.093 1228.42 212.424 1230.42 210.588C1232.42 208.752 1233.84 207.249 1234.68 206.081C1236.18 204.078 1237.35 202.91 1238.19 202.576C1239.19 202.075 1240.61 201.825 1242.44 201.825H1263.99C1265.66 201.825 1266.99 202.326 1268 203.327C1269.16 204.329 1269.67 205.58 1269.5 207.083C1269.33 209.753 1267.91 213.008 1265.24 216.847C1262.73 220.686 1259.06 224.441 1254.22 228.113C1249.37 231.785 1243.28 234.873 1235.93 237.377C1228.75 239.713 1220.48 240.882 1211.13 240.882ZM1183.58 162.017H1238.94V161.266C1238.94 154.756 1237.85 149.081 1235.68 144.241C1233.51 139.401 1230.34 135.562 1226.16 132.724C1221.99 129.887 1216.98 128.468 1211.13 128.468C1205.29 128.468 1200.28 129.887 1196.1 132.724C1191.93 135.562 1188.75 139.401 1186.58 144.241C1184.58 149.081 1183.58 154.756 1183.58 161.266V162.017Z" fill="#081C2E"/>
</svg>
