<?xml version="1.0" encoding="UTF-8" standalone="no"?>
<!DOCTYPE svg PUBLIC "-//W3C//DTD SVG 1.1//EN" "http://www.w3.org/Graphics/SVG/1.1/DTD/svg11.dtd">
<svg width="100%" height="100%" viewBox="0 0 1127 419" version="1.1" xmlns="http://www.w3.org/2000/svg" xmlns:xlink="http://www.w3.org/1999/xlink" xml:space="preserve" xmlns:serif="http://www.serif.com/" style="fill-rule:evenodd;clip-rule:evenodd;stroke-linejoin:round;stroke-miterlimit:2;">
    <g transform="matrix(1.68029,0,0,1.71857,-351.856,-718.945)">
        <g>
            <path d="M278.36,593.61C277.38,594.72 276.91,595.82 276.4,596.97C275.8,598.29 274.78,598.89 273.33,598.89C271.84,598.89 270.65,598.38 269.97,597.02C269.54,596.13 269.12,595.19 269.12,594.17C268.86,586.17 269.03,578.2 271.38,570.46C272.4,566.88 273.64,563.39 275.51,560.2C277.47,556.79 278.36,553.13 278.96,549.34C280.79,537.63 283.77,526.22 289.73,515.79C293.82,508.68 299.35,503.27 307.95,502.21C316.17,501.1 323.02,504.04 327.96,510.68C331.79,515.87 336.3,519.83 342.86,521.28C344.39,521.58 345.8,522.39 347.16,523.11C348.52,523.83 349.63,524.98 349.03,526.73C348.48,528.39 347.07,528.86 345.45,528.86C340.64,528.86 335.87,528.99 331.06,528.86C326.25,528.73 321.52,529.16 317.01,530.99C310.11,533.71 305.13,538.53 301.56,544.83C295.05,556.37 293.56,568.84 294.79,581.7C295.43,588.38 297.05,594.94 300.24,600.99C301.64,603.63 303.35,606.1 306.03,607.63C309.73,609.84 313.78,609.38 316.97,606.52C320.89,602.99 323.06,598.43 324.38,593.54C326.55,585.66 327.7,577.62 327.23,569.44C326.89,563.65 326.04,557.86 325.27,552.03C324.93,549.65 325.31,547.56 327.36,546.11C329.45,544.66 331.53,544.92 333.7,546.19C339.32,549.51 343.28,554.36 346.09,560.07C348.98,565.86 350.99,571.99 351.84,578.46C352.61,584.21 352.48,590 351.97,595.7C351.8,597.36 350.99,598.59 349.12,598.94C347.16,599.28 345.76,598.64 344.95,596.85C344.91,596.77 344.91,596.72 344.86,596.68C344.22,595.83 344.43,593.96 343.07,594.13C341.84,594.3 342.22,596.05 341.88,597.11C339.54,604.18 336.52,610.86 332.05,616.91C330.13,619.51 330.39,620.66 332.94,622.66C333.28,622.96 333.71,623.26 334.05,623.55C335.16,624.57 335.67,625.76 335.03,627.21C334.48,628.53 333.28,629.17 331.92,629.04C326.05,628.57 320.17,628.44 314.34,628.06C308.59,627.68 302.89,628.36 297.18,628.44C294.75,628.48 292.28,628.87 289.81,628.99C288.49,629.07 287.38,628.61 286.87,627.24C286.32,625.88 286.53,624.56 287.51,623.49C287.89,623.06 288.49,622.77 288.96,622.34C291.39,620.42 291.56,619.02 289.68,616.59C285.04,610.59 281.76,603.95 279.8,596.62C279.42,595.66 279.12,594.63 278.36,593.61Z" style="fill:rgb(8,28,46);fill-rule:nonzero;"/>
            <path d="M239.39,531.58C239.6,515.57 244.33,500.88 254.08,487.99C259.83,480.33 266.81,473.94 275.24,469.22C276.9,468.28 277.41,467.47 276.35,465.69C274.73,462.84 273.41,459.77 272.09,456.79C271.32,455.09 271.88,453.43 273.2,452.19C274.6,450.87 276.35,450.66 278.14,451.34C279.42,451.81 280.1,452.74 280.69,453.89C282.01,456.57 283.37,459.17 284.65,461.85C285.37,463.38 286.23,463.81 288.01,463.13C299.72,458.66 311.89,457.38 324.24,459.04C335.99,460.66 346.85,464.7 356.6,471.47C359.2,473.22 361.58,475.17 363.96,477.22C366.13,479.05 365.83,481.99 363.49,483.35C362.38,483.99 361.32,483.9 360.21,483.31C358.59,482.46 357.31,481.05 355.61,480.29C347.52,476.63 339.9,477.48 332.96,482.97C328.79,486.25 327.6,490.93 327.81,495.95C327.85,497.65 328.02,499.23 326.45,500.29C324.83,501.31 323.26,500.97 321.64,500.03C312.87,495.26 304.27,496.07 296.01,501.18C292.22,503.48 288.86,506.37 286.35,510.08C284.65,512.63 283.24,515.27 283.33,518.47C283.37,519.92 282.82,521.07 281.37,521.71C279.97,522.39 278.69,522.14 277.54,521.24C276.31,520.3 275.16,519.2 273.84,518.39C266.9,514.09 260.73,515.32 253.87,520.69C248.89,524.65 246.93,530.18 246.8,536.36C246.76,538.11 246.16,539.38 244.5,540.06C242.97,540.66 241.69,540.14 240.58,539.04C240.11,538.53 239.81,537.93 239.77,537.25C239.65,535.32 239.52,533.41 239.39,531.58Z" style="fill:rgb(53,156,243);fill-rule:nonzero;"/>
            <path d="M375.88,605.34C376.43,614.58 369.79,622.79 362.55,625.31C358.93,626.54 355.23,626.29 351.65,625.57C346.5,624.46 341.9,622.12 337.73,619.01C336.24,617.9 335.77,616.92 337.05,615.35C339.14,612.71 340.58,609.77 341.73,606.71C342.24,605.26 342.92,605.22 343.86,606.41C344.97,607.86 346.12,609.3 347.22,610.71C349.73,613.9 353.01,614.92 356.88,613.86C360.46,612.88 362.46,610.33 363.01,606.79C363.35,604.49 362.63,602.32 361.43,600.23C359,595.84 361.13,591.42 365.94,590.61C368.37,590.18 370.45,590.99 371.9,592.95C374.6,596.65 376.22,600.78 375.88,605.34Z" style="fill:rgb(53,156,243);fill-rule:nonzero;"/>
            <path d="M423.08,559.93C422.34,559.93 421.71,559.67 421.19,559.15C420.67,558.63 420.41,558 420.41,557.26L420.41,495.75L399.83,495.75C399.09,495.75 398.46,495.49 397.94,494.97C397.42,494.45 397.16,493.82 397.16,493.08L397.16,484.85C397.16,484.03 397.42,483.37 397.94,482.85C398.46,482.33 399.09,482.07 399.83,482.07L456.56,482.07C457.38,482.07 458.04,482.33 458.56,482.85C459.08,483.37 459.34,484.04 459.34,484.85L459.34,493.08C459.34,493.82 459.08,494.45 458.56,494.97C458.04,495.49 457.37,495.75 456.56,495.75L436.1,495.75L436.1,557.26C436.1,558 435.84,558.63 435.32,559.15C434.8,559.67 434.13,559.93 433.32,559.93L423.08,559.93Z" style="fill:rgb(53,156,243);fill-rule:nonzero;"/>
            <path d="M483.7,561.05C479.18,561.05 475.25,560.05 471.91,558.05C468.65,555.97 466.13,553.08 464.35,549.37C462.57,545.59 461.68,541.14 461.68,536.02L461.68,504.76C461.68,504.02 461.94,503.39 462.46,502.87C462.98,502.35 463.61,502.09 464.35,502.09L474.14,502.09C474.96,502.09 475.59,502.35 476.03,502.87C476.55,503.39 476.81,504.02 476.81,504.76L476.81,535.35C476.81,544.55 480.85,549.14 488.93,549.14C492.79,549.14 495.83,547.92 498.05,545.47C500.35,543.02 501.5,539.65 501.5,535.35L501.5,504.76C501.5,504.02 501.76,503.39 502.28,502.87C502.8,502.35 503.43,502.09 504.17,502.09L513.96,502.09C514.7,502.09 515.33,502.35 515.85,502.87C516.37,503.39 516.63,504.02 516.63,504.76L516.63,557.26C516.63,558 516.37,558.63 515.85,559.15C515.33,559.67 514.7,559.93 513.96,559.93L504.95,559.93C504.13,559.93 503.47,559.67 502.95,559.15C502.5,558.63 502.28,558 502.28,557.26L502.28,552.7C500.28,555.3 497.79,557.33 494.83,558.82C491.86,560.3 488.15,561.05 483.7,561.05Z" style="fill:rgb(53,156,243);fill-rule:nonzero;"/>
            <path d="M528.87,559.93C528.2,559.93 527.61,559.71 527.09,559.26C526.64,558.74 526.42,558.15 526.42,557.48C526.42,557.26 526.46,557 526.53,556.7C526.68,556.4 526.9,556.03 527.2,555.59L546.11,530.23L528.53,506.43C528.31,506.06 528.12,505.73 527.97,505.43C527.9,505.13 527.86,504.84 527.86,504.54C527.86,503.87 528.08,503.32 528.53,502.87C529.05,502.35 529.64,502.09 530.31,502.09L540,502.09C540.89,502.09 541.56,502.31 542,502.76C542.45,503.21 542.78,503.61 543,503.98L555.57,520.66L568.14,503.98C568.44,503.61 568.77,503.2 569.14,502.76C569.59,502.32 570.25,502.09 571.14,502.09L580.37,502.09C581.04,502.09 581.59,502.35 582.04,502.87C582.56,503.31 582.82,503.83 582.82,504.43C582.82,504.8 582.75,505.13 582.6,505.43C582.53,505.73 582.38,506.06 582.15,506.43L564.35,530.46L583.37,555.6C583.67,556.04 583.85,556.42 583.93,556.71C584.08,557.01 584.15,557.27 584.15,557.49C584.15,558.16 583.89,558.75 583.37,559.27C582.93,559.71 582.37,559.94 581.7,559.94L571.58,559.94C570.76,559.94 570.13,559.75 569.69,559.38C569.25,558.94 568.87,558.53 568.58,558.16L555.23,540.47L541.66,558.16C541.36,558.53 540.99,558.94 540.55,559.38C540.18,559.75 539.55,559.94 538.66,559.94L528.87,559.94L528.87,559.93Z" style="fill:rgb(53,156,243);fill-rule:nonzero;"/>
            <path d="M634.38,561.05C627.48,561.05 621.62,559.86 616.8,557.49C612.05,555.04 608.42,551.59 605.9,547.14C603.38,542.62 601.97,537.2 601.67,530.9C601.6,527.86 601.56,524.6 601.56,521.11C601.56,517.62 601.6,514.29 601.67,511.1C601.97,504.87 603.38,499.49 605.9,494.97C608.5,490.45 612.17,487 616.91,484.63C621.73,482.18 627.55,480.96 634.37,480.96C639.41,480.96 643.94,481.63 647.94,482.96C651.94,484.29 655.36,486.15 658.17,488.52C660.99,490.82 663.18,493.53 664.73,496.64C666.29,499.75 667.1,503.13 667.18,506.76C667.25,507.43 667.03,507.98 666.51,508.43C666.07,508.87 665.51,509.1 664.84,509.1L654.27,509.1C653.45,509.1 652.79,508.91 652.27,508.54C651.75,508.1 651.38,507.39 651.16,506.43C649.97,501.54 647.93,498.2 645.04,496.42C642.15,494.64 638.55,493.75 634.25,493.75C629.28,493.75 625.31,495.16 622.35,497.98C619.38,500.72 617.79,505.28 617.57,511.66C617.35,517.74 617.35,523.97 617.57,530.35C617.79,536.73 619.39,541.33 622.35,544.14C625.32,546.88 629.28,548.26 634.25,548.26C638.55,548.26 642.15,547.37 645.04,545.59C647.93,543.74 649.97,540.4 651.16,535.58C651.38,534.54 651.75,533.84 652.27,533.47C652.79,533.1 653.46,532.91 654.27,532.91L664.84,532.91C665.51,532.91 666.06,533.13 666.51,533.58C667.03,534.03 667.25,534.58 667.18,535.25C667.11,538.88 666.29,542.26 664.73,545.37C663.17,548.48 660.99,551.23 658.17,553.6C655.35,555.9 651.94,557.72 647.94,559.05C643.94,560.38 639.42,561.05 634.38,561.05Z" style="fill:rgb(8,28,46);fill-rule:nonzero;"/>
            <path d="M695.84,561.05C691.98,561.05 688.5,560.31 685.38,558.83C682.27,557.27 679.78,555.23 677.93,552.71C676.15,550.11 675.26,547.22 675.26,544.03C675.26,538.84 677.34,534.72 681.49,531.68C685.72,528.57 691.28,526.49 698.18,525.45L713.42,523.23L713.42,520.89C713.42,517.78 712.64,515.37 711.08,513.66C709.52,511.95 706.85,511.1 703.07,511.1C700.4,511.1 698.21,511.66 696.51,512.77C694.88,513.81 693.66,515.22 692.84,517C692.25,517.96 691.39,518.45 690.28,518.45L681.49,518.45C680.67,518.45 680.04,518.23 679.6,517.78C679.23,517.34 679.04,516.74 679.04,516C679.11,514.81 679.6,513.37 680.49,511.66C681.38,509.95 682.79,508.32 684.72,506.77C686.65,505.14 689.13,503.77 692.17,502.65C695.21,501.53 698.88,500.98 703.18,500.98C707.85,500.98 711.78,501.57 714.97,502.76C718.23,503.87 720.83,505.39 722.76,507.32C724.69,509.25 726.1,511.51 726.99,514.11C727.88,516.71 728.32,519.45 728.32,522.34L728.32,557.27C728.32,558.01 728.06,558.64 727.54,559.16C727.02,559.68 726.39,559.94 725.65,559.94L716.64,559.94C715.82,559.94 715.16,559.68 714.64,559.16C714.2,558.64 713.97,558.01 713.97,557.27L713.97,552.93C713.01,554.34 711.71,555.67 710.08,556.93C708.45,558.12 706.45,559.12 704.07,559.93C701.78,560.67 699.03,561.05 695.84,561.05ZM699.63,550.48C702.23,550.48 704.56,549.92 706.64,548.81C708.79,547.7 710.46,545.99 711.65,543.69C712.91,541.32 713.54,538.35 713.54,534.79L713.54,532.45L702.42,534.23C698.04,534.9 694.78,535.97 692.63,537.46C690.48,538.94 689.4,540.76 689.4,542.91C689.4,544.54 689.88,545.95 690.85,547.14C691.89,548.25 693.19,549.11 694.74,549.7C696.29,550.22 697.92,550.48 699.63,550.48Z" style="fill:rgb(8,28,46);fill-rule:nonzero;"/>
            <path d="M745.26,559.93C744.52,559.93 743.89,559.67 743.37,559.15C742.85,558.63 742.59,558 742.59,557.26L742.59,504.87C742.59,504.05 742.85,503.39 743.37,502.87C743.89,502.35 744.52,502.09 745.26,502.09L754.27,502.09C755.01,502.09 755.64,502.35 756.16,502.87C756.75,503.39 757.05,504.06 757.05,504.87L757.05,509.43C758.76,507.06 760.94,505.24 763.61,503.98C766.35,502.72 769.51,502.09 773.07,502.09L777.63,502.09C778.45,502.09 779.08,502.35 779.52,502.87C780.04,503.39 780.3,504.02 780.3,504.76L780.3,512.77C780.3,513.51 780.04,514.14 779.52,514.66C779.07,515.18 778.44,515.44 777.63,515.44L768.95,515.44C765.39,515.44 762.61,516.44 760.61,518.44C758.68,520.44 757.72,523.19 757.72,526.67L757.72,557.26C757.72,558 757.46,558.63 756.94,559.15C756.42,559.67 755.75,559.93 754.94,559.93L745.26,559.93Z" style="fill:rgb(8,28,46);fill-rule:nonzero;"/>
            <path d="M813.13,561.05C804.9,561.05 798.37,558.68 793.55,553.93C788.73,549.18 786.13,542.44 785.76,533.69C785.69,532.95 785.65,532.02 785.65,530.91C785.65,529.72 785.69,528.8 785.76,528.13C786.06,522.57 787.32,517.75 789.54,513.67C791.84,509.59 794.99,506.48 799,504.33C803,502.11 807.71,500.99 813.13,500.99C819.14,500.99 824.18,502.25 828.26,504.77C832.34,507.22 835.42,510.67 837.49,515.11C839.57,519.49 840.6,524.57 840.6,530.35L840.6,532.69C840.6,533.43 840.34,534.06 839.82,534.58C839.3,535.1 838.63,535.36 837.82,535.36L800.9,535.36L800.9,536.25C800.97,538.85 801.46,541.26 802.35,543.48C803.31,545.63 804.69,547.37 806.47,548.71C808.32,550.04 810.51,550.71 813.03,550.71C815.11,550.71 816.85,550.41 818.26,549.82C819.67,549.15 820.82,548.41 821.71,547.6C822.6,546.78 823.23,546.12 823.6,545.6C824.27,544.71 824.79,544.19 825.16,544.04C825.61,543.82 826.24,543.71 827.05,543.71L836.62,543.71C837.36,543.71 837.95,543.93 838.4,544.38C838.92,544.82 839.14,545.38 839.07,546.05C839,547.24 838.37,548.68 837.18,550.39C836.07,552.1 834.44,553.76 832.29,555.4C830.14,557.03 827.43,558.4 824.17,559.52C820.96,560.53 817.29,561.05 813.13,561.05ZM800.9,526.01L825.48,526.01L825.48,525.68C825.48,522.79 825,520.27 824.03,518.12C823.07,515.97 821.66,514.26 819.8,513C817.95,511.74 815.72,511.11 813.13,511.11C810.53,511.11 808.31,511.74 806.46,513C804.61,514.26 803.2,515.97 802.23,518.12C801.34,520.27 800.9,522.79 800.9,525.68L800.9,526.01Z" style="fill:rgb(8,28,46);fill-rule:nonzero;"/>
        </g>
        <g>
            <path d="M461.94,608.02C461.77,608.02 461.62,607.96 461.5,607.83C461.37,607.7 461.31,607.56 461.31,607.39C461.31,607.28 461.32,607.17 461.34,607.04L469.17,586.63C469.25,586.42 469.37,586.25 469.52,586.13C469.67,586 469.89,585.94 470.18,585.94L472.33,585.94C472.62,585.94 472.85,586 472.99,586.13C473.14,586.26 473.25,586.42 473.34,586.63L481.13,607.04C481.17,607.17 481.19,607.28 481.19,607.39C481.19,607.56 481.13,607.71 481,607.83C480.87,607.96 480.73,608.02 480.56,608.02L478.95,608.02C478.7,608.02 478.51,607.96 478.4,607.83C478.28,607.7 478.21,607.59 478.16,607.48L476.42,603L466.07,603L464.33,607.48C464.31,607.59 464.24,607.7 464.11,607.83C463.98,607.96 463.79,608.02 463.54,608.02L461.94,608.02ZM466.99,600.29L475.51,600.29L471.25,589.09L466.99,600.29Z" style="fill:rgb(8,28,46);fill-rule:nonzero;"/>
            <path d="M497.06,608.33C495.9,608.33 494.9,608.12 494.06,607.71C493.22,607.3 492.53,606.74 491.99,606.04C491.45,605.33 491.05,604.53 490.79,603.63C490.53,602.73 490.37,601.77 490.33,600.76C490.31,600.42 490.3,600.11 490.3,599.81C490.3,599.52 490.31,599.2 490.33,598.86C490.37,597.87 490.52,596.93 490.79,596.02C491.05,595.12 491.45,594.31 491.99,593.59C492.53,592.88 493.22,592.31 494.06,591.9C494.9,591.49 495.9,591.28 497.06,591.28C498.3,591.28 499.33,591.5 500.15,591.94C500.97,592.38 501.64,592.93 502.17,593.58L502.17,586.32C502.17,586.11 502.24,585.94 502.38,585.8C502.52,585.66 502.69,585.59 502.9,585.59L504.41,585.59C504.62,585.59 504.79,585.66 504.93,585.8C505.07,585.94 505.14,586.11 505.14,586.32L505.14,607.27C505.14,607.48 505.07,607.65 504.93,607.79C504.79,607.93 504.62,608 504.41,608L502.99,608C502.76,608 502.58,607.93 502.45,607.79C502.32,607.65 502.26,607.48 502.26,607.27L502.26,605.94C501.73,606.61 501.05,607.18 500.21,607.63C499.37,608.11 498.32,608.33 497.06,608.33ZM497.72,605.78C498.77,605.78 499.61,605.54 500.24,605.05C500.87,604.57 501.34,603.95 501.66,603.2C501.98,602.45 502.14,601.69 502.16,600.91C502.18,600.57 502.19,600.17 502.19,599.7C502.19,599.23 502.18,598.82 502.16,598.49C502.14,597.75 501.97,597.03 501.64,596.31C501.31,595.6 500.83,595.01 500.19,594.54C499.55,594.07 498.72,593.85 497.71,593.85C496.64,593.85 495.79,594.09 495.15,594.56C494.52,595.03 494.07,595.65 493.79,596.42C493.52,597.19 493.36,598.01 493.32,598.9C493.3,599.51 493.3,600.12 493.32,600.73C493.36,601.61 493.52,602.44 493.79,603.21C494.06,603.98 494.52,604.6 495.15,605.07C495.8,605.54 496.65,605.78 497.72,605.78Z" style="fill:rgb(8,28,46);fill-rule:nonzero;"/>
            <path d="M510.31,588.55C510.1,588.55 509.93,588.48 509.79,588.34C509.65,588.2 509.58,588.03 509.58,587.82L509.58,586.12C509.58,585.91 509.65,585.73 509.79,585.58C509.93,585.43 510.1,585.36 510.31,585.36L512.3,585.36C512.51,585.36 512.69,585.43 512.84,585.58C512.99,585.73 513.06,585.91 513.06,586.12L513.06,587.82C513.06,588.03 512.99,588.2 512.84,588.34C512.69,588.48 512.51,588.55 512.3,588.55L510.31,588.55ZM510.56,608.02C510.35,608.02 510.18,607.95 510.04,607.81C509.9,607.67 509.83,607.5 509.83,607.29L509.83,592.33C509.83,592.12 509.9,591.95 510.04,591.81C510.18,591.67 510.35,591.6 510.56,591.6L512.07,591.6C512.28,591.6 512.45,591.67 512.59,591.81C512.73,591.95 512.8,592.12 512.8,592.33L512.8,607.29C512.8,607.5 512.73,607.67 512.59,607.81C512.45,607.95 512.28,608.02 512.07,608.02L510.56,608.02Z" style="fill:rgb(8,28,46);fill-rule:nonzero;"/>
            <path d="M523.18,608.02C522.86,608.02 522.62,607.95 522.44,607.8C522.26,607.65 522.12,607.46 522.01,607.23L516.17,592.59C516.13,592.49 516.11,592.38 516.11,592.27C516.11,592.08 516.17,591.92 516.3,591.8C516.43,591.67 516.58,591.61 516.77,591.61L518.28,591.61C518.51,591.61 518.69,591.67 518.82,591.8C518.95,591.93 519.03,592.04 519.07,592.15L523.87,604.58L528.67,592.15C528.71,592.05 528.79,591.93 528.91,591.8C529.03,591.67 529.2,591.61 529.43,591.61L530.98,591.61C531.15,591.61 531.3,591.67 531.44,591.8C531.58,591.93 531.65,592.08 531.65,592.27C531.65,592.38 531.63,592.48 531.59,592.59L525.72,607.23C525.64,607.46 525.5,607.65 525.33,607.8C525.15,607.95 524.89,608.02 524.56,608.02L523.18,608.02Z" style="fill:rgb(8,28,46);fill-rule:nonzero;"/>
            <path d="M535.43,588.55C535.22,588.55 535.05,588.48 534.91,588.34C534.77,588.2 534.7,588.03 534.7,587.82L534.7,586.12C534.7,585.91 534.77,585.73 534.91,585.58C535.05,585.43 535.22,585.36 535.43,585.36L537.42,585.36C537.63,585.36 537.81,585.43 537.96,585.58C538.11,585.73 538.18,585.91 538.18,586.12L538.18,587.82C538.18,588.03 538.11,588.2 537.96,588.34C537.81,588.48 537.63,588.55 537.42,588.55L535.43,588.55ZM535.68,608.02C535.47,608.02 535.3,607.95 535.16,607.81C535.02,607.67 534.95,607.5 534.95,607.29L534.95,592.33C534.95,592.12 535.02,591.95 535.16,591.81C535.3,591.67 535.47,591.6 535.68,591.6L537.19,591.6C537.4,591.6 537.57,591.67 537.71,591.81C537.85,591.95 537.92,592.12 537.92,592.33L537.92,607.29C537.92,607.5 537.85,607.67 537.71,607.81C537.57,607.95 537.4,608.02 537.19,608.02L535.68,608.02Z" style="fill:rgb(8,28,46);fill-rule:nonzero;"/>
            <path d="M548.27,608.33C547.09,608.33 546.08,608.18 545.24,607.89C544.4,607.6 543.71,607.24 543.19,606.82C542.66,606.4 542.27,605.98 542.01,605.56C541.75,605.14 541.6,604.8 541.58,604.55C541.56,604.32 541.63,604.14 541.8,604.01C541.97,603.88 542.14,603.82 542.3,603.82L543.72,603.82C543.83,603.82 543.91,603.84 543.99,603.87C544.06,603.9 544.16,603.99 544.29,604.14C544.56,604.43 544.87,604.73 545.21,605.02C545.55,605.31 545.96,605.56 546.46,605.75C546.96,605.94 547.57,606.03 548.31,606.03C549.38,606.03 550.27,605.82 550.96,605.41C551.65,605 552,604.4 552,603.6C552,603.07 551.86,602.65 551.57,602.34C551.28,602.03 550.78,601.74 550.06,601.49C549.33,601.24 548.34,600.97 547.08,600.7C545.82,600.41 544.82,600.04 544.08,599.61C543.34,599.18 542.82,598.66 542.5,598.06C542.18,597.46 542.03,596.78 542.03,596.02C542.03,595.24 542.26,594.49 542.72,593.76C543.18,593.03 543.86,592.44 544.76,591.98C545.65,591.52 546.77,591.29 548.12,591.29C549.21,591.29 550.15,591.43 550.93,591.7C551.71,591.97 552.35,592.32 552.85,592.73C553.35,593.14 553.73,593.55 553.99,593.94C554.24,594.34 554.38,594.68 554.4,594.95C554.42,595.16 554.36,595.33 554.21,595.47C554.06,595.61 553.89,595.68 553.71,595.68L552.38,595.68C552.23,595.68 552.11,595.65 552.02,595.59C551.93,595.53 551.84,595.45 551.75,595.37C551.54,595.1 551.29,594.82 551.01,594.55C550.73,594.28 550.36,594.05 549.91,593.87C549.46,593.69 548.86,593.6 548.13,593.6C547.08,593.6 546.29,593.82 545.76,594.26C545.23,594.7 544.97,595.26 544.97,595.93C544.97,596.33 545.09,596.69 545.32,597C545.55,597.32 545.99,597.6 546.65,597.85C547.3,598.1 548.27,598.38 549.55,598.67C550.94,598.94 552.03,599.31 552.83,599.77C553.63,600.23 554.2,600.77 554.53,601.38C554.87,601.99 555.03,602.69 555.03,603.49C555.03,604.37 554.78,605.18 554.27,605.92C553.76,606.66 553.01,607.24 552,607.67C550.99,608.1 549.74,608.33 548.27,608.33Z" style="fill:rgb(8,28,46);fill-rule:nonzero;"/>
            <path d="M559.15,588.55C558.94,588.55 558.77,588.48 558.63,588.34C558.49,588.2 558.42,588.03 558.42,587.82L558.42,586.12C558.42,585.91 558.49,585.73 558.63,585.58C558.77,585.43 558.94,585.36 559.15,585.36L561.14,585.36C561.35,585.36 561.53,585.43 561.68,585.58C561.83,585.73 561.9,585.91 561.9,586.12L561.9,587.82C561.9,588.03 561.83,588.2 561.68,588.34C561.53,588.48 561.35,588.55 561.14,588.55L559.15,588.55ZM559.4,608.02C559.19,608.02 559.02,607.95 558.88,607.81C558.74,607.67 558.67,607.5 558.67,607.29L558.67,592.33C558.67,592.12 558.74,591.95 558.88,591.81C559.02,591.67 559.19,591.6 559.4,591.6L560.91,591.6C561.12,591.6 561.29,591.67 561.43,591.81C561.57,591.95 561.64,592.12 561.64,592.33L561.64,607.29C561.64,607.5 561.57,607.67 561.43,607.81C561.29,607.95 561.12,608.02 560.91,608.02L559.4,608.02Z" style="fill:rgb(8,28,46);fill-rule:nonzero;"/>
            <path d="M573.04,608.33C571.44,608.33 570.11,608.03 569.03,607.41C567.96,606.8 567.14,605.95 566.57,604.87C566,603.79 565.69,602.55 565.62,601.16C565.6,600.8 565.59,600.34 565.59,599.79C565.59,599.23 565.6,598.79 565.62,598.45C565.68,597.04 566,595.8 566.58,594.73C567.16,593.66 567.98,592.82 569.06,592.21C570.13,591.6 571.46,591.29 573.04,591.29C574.62,591.29 575.94,591.59 577.02,592.21C578.09,592.82 578.92,593.66 579.5,594.73C580.08,595.8 580.4,597.04 580.46,598.45C580.48,598.79 580.49,599.23 580.49,599.79C580.49,600.35 580.48,600.81 580.46,601.16C580.4,602.55 580.08,603.78 579.51,604.87C578.94,605.95 578.12,606.8 577.05,607.41C575.97,608.03 574.63,608.33 573.04,608.33ZM573.04,605.9C574.34,605.9 575.38,605.48 576.16,604.65C576.94,603.82 577.36,602.6 577.42,601.01C577.44,600.69 577.45,600.3 577.45,599.81C577.45,599.33 577.44,598.93 577.42,598.61C577.36,597.01 576.94,595.8 576.16,594.97C575.38,594.14 574.34,593.72 573.04,593.72C571.74,593.72 570.69,594.14 569.9,594.97C569.11,595.8 568.7,597.02 568.65,598.61C568.63,598.93 568.62,599.32 568.62,599.81C568.62,600.29 568.63,600.69 568.65,601.01C568.69,602.61 569.11,603.82 569.9,604.65C570.69,605.48 571.73,605.9 573.04,605.9Z" style="fill:rgb(8,28,46);fill-rule:nonzero;"/>
            <path d="M585.15,608.02C584.94,608.02 584.77,607.95 584.63,607.81C584.49,607.67 584.42,607.5 584.42,607.29L584.42,592.33C584.42,592.12 584.49,591.95 584.63,591.81C584.77,591.67 584.94,591.6 585.15,591.6L586.63,591.6C586.84,591.6 587.01,591.67 587.15,591.81C587.29,591.95 587.36,592.12 587.36,592.33L587.36,593.72C587.91,593.01 588.6,592.42 589.43,591.97C590.26,591.52 591.33,591.29 592.63,591.29C594,591.29 595.16,591.59 596.12,592.19C597.08,592.79 597.8,593.62 598.3,594.68C598.79,595.74 599.04,596.98 599.04,598.39L599.04,607.29C599.04,607.5 598.97,607.67 598.83,607.81C598.69,607.95 598.52,608.02 598.31,608.02L596.73,608.02C596.52,608.02 596.35,607.95 596.21,607.81C596.07,607.67 596,607.5 596,607.29L596,598.55C596,597.08 595.64,595.93 594.93,595.09C594.22,594.25 593.16,593.84 591.77,593.84C590.47,593.84 589.42,594.26 588.63,595.09C587.84,595.92 587.45,597.07 587.45,598.55L587.45,607.29C587.45,607.5 587.38,607.67 587.24,607.81C587.1,607.95 586.93,608.02 586.72,608.02L585.15,608.02Z" style="fill:rgb(8,28,46);fill-rule:nonzero;"/>
            <path d="M618,608.33C616.4,608.33 615.07,608.03 613.99,607.41C612.92,606.8 612.1,605.95 611.53,604.87C610.96,603.79 610.65,602.55 610.58,601.16C610.56,600.8 610.55,600.34 610.55,599.79C610.55,599.23 610.56,598.79 610.58,598.45C610.64,597.04 610.96,595.8 611.54,594.73C612.12,593.66 612.94,592.82 614.02,592.21C615.09,591.6 616.42,591.29 618,591.29C619.58,591.29 620.9,591.59 621.98,592.21C623.05,592.82 623.88,593.66 624.46,594.73C625.04,595.8 625.36,597.04 625.42,598.45C625.44,598.79 625.45,599.23 625.45,599.79C625.45,600.35 625.44,600.81 625.42,601.16C625.36,602.55 625.04,603.78 624.47,604.87C623.9,605.95 623.08,606.8 622.01,607.41C620.93,608.03 619.59,608.33 618,608.33ZM618,605.9C619.3,605.9 620.34,605.48 621.12,604.65C621.9,603.82 622.32,602.6 622.38,601.01C622.4,600.69 622.41,600.3 622.41,599.81C622.41,599.33 622.4,598.93 622.38,598.61C622.32,597.01 621.9,595.8 621.12,594.97C620.34,594.14 619.3,593.72 618,593.72C616.7,593.72 615.65,594.14 614.86,594.97C614.07,595.8 613.66,597.02 613.61,598.61C613.59,598.93 613.58,599.32 613.58,599.81C613.58,600.29 613.59,600.69 613.61,601.01C613.65,602.61 614.07,603.82 614.86,604.65C615.65,605.48 616.69,605.9 618,605.9Z" style="fill:rgb(8,28,46);fill-rule:nonzero;"/>
            <path d="M631.56,608.02C631.35,608.02 631.18,607.95 631.04,607.81C630.9,607.67 630.83,607.5 630.83,607.29L630.83,594.13L628.15,594.13C627.94,594.13 627.77,594.06 627.63,593.92C627.49,593.78 627.42,593.61 627.42,593.4L627.42,592.33C627.42,592.12 627.49,591.95 627.63,591.81C627.77,591.67 627.94,591.6 628.15,591.6L630.83,591.6L630.83,590.02C630.83,588.95 631.01,588.01 631.37,587.2C631.73,586.39 632.3,585.76 633.09,585.32C633.88,584.88 634.94,584.66 636.26,584.66L638.15,584.66C638.36,584.66 638.53,584.73 638.67,584.87C638.81,585.01 638.88,585.18 638.88,585.39L638.88,586.46C638.88,586.67 638.81,586.84 638.67,586.98C638.53,587.12 638.36,587.19 638.15,587.19L636.32,587.19C635.33,587.19 634.66,587.45 634.3,587.96C633.94,588.48 633.76,589.22 633.76,590.18L633.76,591.6L637.83,591.6C638.04,591.6 638.21,591.67 638.35,591.81C638.49,591.95 638.56,592.12 638.56,592.33L638.56,593.4C638.56,593.61 638.49,593.78 638.35,593.92C638.21,594.06 638.04,594.13 637.83,594.13L633.76,594.13L633.76,607.29C633.76,607.5 633.69,607.67 633.55,607.81C633.41,607.95 633.24,608.02 633.03,608.02L631.56,608.02Z" style="fill:rgb(8,28,46);fill-rule:nonzero;"/>
        </g>
        <g>
            <g>
                <path d="M705.92,608.28C701.14,608.28 697.01,604.54 697.01,596.5C697.01,588.45 701.13,584.71 705.92,584.71C707.79,584.71 709.38,585.09 710.77,585.88L710.1,587.47C708.99,586.8 707.63,586.42 706.04,586.42C702.24,586.42 699.01,589.53 699.01,596.5C699.01,603.47 702.24,606.54 706.04,606.54C707.63,606.54 708.99,606.19 710.1,605.53L710.77,607.12C709.37,607.9 707.78,608.28 705.92,608.28Z" style="fill:rgb(0,85,154);fill-rule:nonzero;"/>
                <rect x="714.35" y="583.93" width="1.83" height="24.38" style="fill:rgb(0,85,154);fill-rule:nonzero;"/>
                <path d="M742.06,608.31C738.12,608.31 735.88,606.48 735.88,602.6L735.88,591.58L737.71,591.58L737.71,602.63C737.71,605.43 739.17,606.76 742.06,606.76C743.8,606.76 745.32,606.42 746.07,606.08L746.07,591.58L747.9,591.58L747.9,607.17C746.69,607.78 744.46,608.31 742.06,608.31Z" style="fill:rgb(0,85,154);fill-rule:nonzero;"/>
                <path d="M761.39,583.92L761.39,591.72C760.24,591.43 758.84,591.23 757.38,591.23C753.44,591.23 751.81,593.09 751.2,596.94C751.2,596.94 751.03,598.25 751.03,599.93C751.03,601.62 751.2,602.59 751.2,602.59C751.85,606.5 753.44,608.3 757.38,608.3C759.77,608.3 762.01,607.77 763.22,606.81L763.22,583.92L761.39,583.92ZM761.39,606.07C760.64,606.41 759.12,606.75 757.38,606.75C754.49,606.75 753.43,605.38 753.03,602.62C753.03,602.62 752.86,601.61 752.86,599.93C752.86,598.26 753.03,596.91 753.03,596.91C753.58,594.17 754.49,592.78 757.38,592.78C759.12,592.78 760.64,593.12 761.39,593.46L761.39,606.07Z" style="fill:rgb(0,85,154);fill-rule:nonzero;"/>
                <path d="M766.73,608.31L766.73,583.93L770.24,583.93L770.24,605.36L777.97,605.36L777.97,608.31L766.73,608.31Z" style="fill:rgb(0,85,154);fill-rule:nonzero;"/>
                <path d="M782.88,588.53C781.76,588.53 780.86,587.66 780.86,586.6C780.86,585.54 781.76,584.67 782.88,584.67C784,584.67 784.9,585.54 784.9,586.6C784.9,587.66 784,588.53 782.88,588.53ZM781.17,608.31L781.17,591.57L784.59,591.57L784.59,608.31L781.17,608.31Z" style="fill:rgb(0,85,154);fill-rule:nonzero;"/>
                <path d="M798.06,608.31L798.06,597.47C798.06,595.52 796.88,594.3 794.55,594.3C793.31,594.3 792.16,594.52 791.47,594.8L791.47,608.31L788.09,608.31L788.09,592.75C789.77,592.07 791.91,591.57 794.52,591.57C799.21,591.57 801.48,593.62 801.48,597.16L801.48,608.31L798.06,608.31Z" style="fill:rgb(0,85,154);fill-rule:nonzero;"/>
                <path d="M811.76,608.31C807.35,608.31 804.99,606.48 804.99,602.28L804.99,591.57L808.38,591.57L808.38,602.34C808.38,604.48 809.53,605.51 811.77,605.51C813.07,605.51 814.19,605.29 814.75,605.04L814.75,591.56L818.14,591.56L818.14,607.12C816.76,607.81 814.31,608.31 811.76,608.31Z" style="fill:rgb(0,85,154);fill-rule:nonzero;"/>
                <path d="M832.21,608.31L828.3,601.94L828.24,601.94L824.33,608.31L820.45,608.31L826.2,599.61L820.92,591.57L824.74,591.57L828.25,597.4L828.31,597.4L831.82,591.57L835.64,591.57L830.36,599.61L836.11,608.31L832.21,608.31Z" style="fill:rgb(0,85,154);fill-rule:nonzero;"/>
                <path d="M732.2,596.94C731.58,593.08 729.96,591.23 726.02,591.23C722.08,591.23 720.46,593.09 719.84,596.94C719.84,596.94 719.67,598.25 719.67,599.93C719.67,601.62 719.84,602.59 719.84,602.59C720.49,606.5 722.08,608.3 726.02,608.3C729.96,608.3 731.55,606.49 732.2,602.59C732.2,602.59 732.37,601.62 732.37,599.93C732.37,598.25 732.2,596.94 732.2,596.94ZM730.37,602.62C729.98,605.38 728.91,606.75 726.02,606.75C723.13,606.75 722.06,605.38 721.67,602.62C721.67,602.62 721.5,601.61 721.5,599.93C721.5,598.26 721.67,596.91 721.67,596.91C722.21,594.17 723.13,592.78 726.02,592.78C728.91,592.78 729.82,594.17 730.37,596.91C730.37,596.91 730.54,598.26 730.54,599.93C730.54,601.61 730.37,602.62 730.37,602.62Z" style="fill:rgb(0,85,154);fill-rule:nonzero;"/>
            </g>
            <g>
                <path d="M838.17,590.36C838.11,590.75 838.06,591.14 838,591.55L837.65,591.55C837.72,591 837.79,590.47 837.88,589.95C837.89,589.9 838.07,589.83 838.16,589.84C838.26,589.85 838.4,589.92 838.44,590C838.57,590.31 838.67,590.64 838.86,590.97C838.96,590.7 839.08,590.44 839.14,590.16C839.21,589.83 839.41,589.77 839.76,589.86C839.84,590.4 839.91,590.96 839.99,591.52C839.74,591.61 839.63,591.57 839.61,591.33C839.58,591 839.52,590.68 839.4,590.35C839.29,590.67 839.18,590.99 839.05,591.31C839.01,591.41 838.9,591.48 838.82,591.57C838.74,591.48 838.63,591.41 838.58,591.31C838.45,591 838.35,590.67 838.24,590.36L838.17,590.36Z" style="fill:rgb(0,85,154);fill-rule:nonzero;"/>
                <path d="M837.46,590.07C837,590.14 837,590.14 837,590.58C837,590.81 836.99,591.05 837,591.28C837.01,591.53 836.92,591.63 836.59,591.53C836.59,591.16 836.58,590.79 836.59,590.41C836.59,590.22 836.57,590.08 836.3,590.1C836.23,590.1 836.16,590.02 836.09,589.98C836.16,589.93 836.23,589.84 836.31,589.84C836.62,589.82 836.94,589.84 837.26,589.83C837.48,589.82 837.53,589.91 837.46,590.07Z" style="fill:rgb(0,85,154);fill-rule:nonzero;"/>
            </g>
            <g>
                <path d="M666.94,576.02C667.48,575.88 668,575.75 668.52,575.61C669.55,575.33 670.6,575.22 671.67,575.22C674.07,575.24 676.32,575.82 678.38,577.04C681.91,579.14 684.08,582.23 684.89,586.26C685.01,586.84 684.9,587.41 684.81,587.97C684.34,590.76 683.09,593.14 681.08,595.13C681,595.21 680.92,595.29 680.83,595.36C680.82,595.37 680.81,595.37 680.77,595.39C680.85,595.11 680.93,594.85 681,594.59C681.32,593.47 681.49,592.33 681.53,591.17C681.61,589.13 681.29,587.15 680.52,585.25C680.31,584.73 680.03,584.23 679.69,583.79C678.9,582.73 678.12,581.65 677.23,580.68C675.02,578.28 672.27,576.83 669.06,576.26C668.39,576.15 667.68,576.1 666.94,576.02Z" style="fill:rgb(0,85,154);fill-rule:nonzero;"/>
                <path d="M678.02,589.07C675.68,584.72 672.15,581.97 667.28,581.08C662.41,580.19 658.16,581.52 654.44,584.76C654.61,584.45 654.78,584.13 654.96,583.83C657.03,580.49 659.98,578.35 663.83,577.59C667.71,576.83 671.32,577.59 674.59,579.85C674.91,580.07 675.16,580.4 675.4,580.72C676.75,582.5 677.61,584.49 677.9,586.7C678,587.43 678,588.17 678.04,588.91C678.05,588.95 678.03,589 678.02,589.07Z" style="fill:rgb(0,85,154);fill-rule:nonzero;"/>
                <path d="M671.2,586.38C666.57,584.97 662.15,585.45 658.12,588.24C654.09,591.03 652.08,594.98 651.77,599.87C651.73,599.75 651.7,599.66 651.67,599.56C651.64,599.46 651.6,599.36 651.57,599.25C651.2,597.93 650.99,596.58 651.05,595.2C651.19,591.72 652.43,588.7 654.85,586.18C656.62,584.34 658.74,583.11 661.21,582.48C661.61,582.38 662.01,582.27 662.42,582.24C662.78,582.21 663.15,582.26 663.51,582.31C666.1,582.68 668.37,583.73 670.32,585.47C670.64,585.77 670.92,586.09 671.2,586.38Z" style="fill:rgb(0,85,154);fill-rule:nonzero;"/>
                <path d="M682.27,578.83C683.75,579.55 685.04,580.52 686.16,581.71C688,583.68 689.16,585.99 689.59,588.65C690.18,592.31 689.44,595.68 687.3,598.72C687.02,599.12 686.59,599.42 686.19,599.71C684.37,601.03 682.34,601.82 680.11,602.07C679.44,602.15 678.75,602.15 678.08,602.17C682.38,599.85 685.17,596.38 686.04,591.55C686.9,586.72 685.52,582.5 682.27,578.83Z" style="fill:rgb(0,85,154);fill-rule:nonzero;"/>
                <path d="M664.75,589.13C660.47,591.43 657.68,594.89 656.8,599.72C655.93,604.53 657.3,608.75 660.52,612.39C660.51,612.41 660.5,612.42 660.49,612.44C659.91,612.08 659.31,611.75 658.76,611.36C655.99,609.39 654.16,606.75 653.41,603.43C652.51,599.47 653.24,595.8 655.58,592.46C655.66,592.35 655.76,592.25 655.87,592.16C657.84,590.5 660.11,589.5 662.67,589.2C663.36,589.12 664.06,589.11 664.75,589.07C664.74,589.09 664.74,589.11 664.75,589.13Z" style="fill:rgb(0,85,154);fill-rule:nonzero;"/>
                <path d="M675.61,615.09C675.23,615.2 674.85,615.31 674.47,615.41C673.25,615.72 672,615.86 670.75,615.78C666.1,615.5 662.48,613.4 659.92,609.52C658.92,608.01 658.3,606.35 658.02,604.56C657.96,604.15 658.02,603.7 658.08,603.28C658.41,600.98 659.3,598.91 660.76,597.09C661.15,596.6 661.6,596.16 662.03,595.71C662.06,595.68 662.1,595.66 662.14,595.62C660.72,600.29 661.21,604.71 664,608.74C666.77,612.76 670.73,614.79 675.61,615.09Z" style="fill:rgb(0,85,154);fill-rule:nonzero;"/>
                <path d="M664.86,602.09C667.17,606.4 670.64,609.18 675.45,610.05C680.27,610.92 684.49,609.55 688.15,606.32C687.98,606.63 687.82,606.94 687.64,607.24C685.7,610.41 682.94,612.52 679.33,613.4C675.36,614.37 671.67,613.66 668.29,611.34C668.13,611.23 667.99,611.09 667.86,610.94C666.34,609.12 665.38,607.03 665,604.69C664.87,603.87 664.82,603.04 664.84,602.21C664.85,602.18 664.85,602.15 664.86,602.09Z" style="fill:rgb(0,85,154);fill-rule:nonzero;"/>
                <path d="M691.2,591.17C691.36,591.88 691.55,592.58 691.68,593.29C691.89,594.45 691.91,595.62 691.8,596.79C691.62,598.66 691.07,600.43 690.13,602.07C688.6,604.75 686.41,606.7 683.56,607.91C682.61,608.32 681.62,608.62 680.6,608.75C680.2,608.8 679.77,608.74 679.36,608.68C677.36,608.39 675.52,607.67 673.85,606.52C673.1,606 672.41,605.41 671.78,604.74C671.75,604.71 671.72,604.67 671.69,604.63C676.35,606.04 680.77,605.57 684.8,602.78C688.83,600 690.85,596.04 691.15,591.19C691.16,591.18 691.18,591.17 691.2,591.17Z" style="fill:rgb(0,85,154);fill-rule:nonzero;"/>
                <path d="M665.99,601.51C666.85,602.29 667.79,602.97 668.79,603.55C668.85,603.59 668.9,603.65 668.94,603.71C670.18,605.59 671.76,607.11 673.7,608.25C673.73,608.27 673.77,608.29 673.79,608.33C670.28,607.1 667.68,604.83 665.99,601.51Z" style="fill:rgb(0,85,154);fill-rule:nonzero;"/>
                <path d="M676.9,589.48C676.62,589.25 676.36,588.99 676.06,588.78C675.45,588.34 674.82,587.93 674.2,587.51C674.12,587.45 674.03,587.39 673.98,587.31C672.75,585.44 671.19,583.94 669.27,582.79C669.23,582.76 669.19,582.74 669.16,582.69C672.64,583.92 675.23,586.18 676.9,589.48Z" style="fill:rgb(0,85,154);fill-rule:nonzero;"/>
                <path d="M684.42,592.95C683.18,596.46 680.92,599.05 677.61,600.73C677.64,600.69 677.67,600.65 677.7,600.61C678.42,599.82 679.04,598.96 679.57,598.04C679.62,597.96 679.69,597.87 679.77,597.82C681.66,596.58 683.18,594.99 684.32,593.04C684.34,593.01 684.35,592.99 684.37,592.96C684.38,592.95 684.39,592.96 684.42,592.95Z" style="fill:rgb(0,85,154);fill-rule:nonzero;"/>
                <path d="M665.3,590.27C664.9,590.78 664.5,591.27 664.12,591.79C663.85,592.16 663.63,592.56 663.38,592.93C663.31,593.04 663.21,593.15 663.1,593.23C661.26,594.45 659.78,596 658.65,597.9C658.62,597.95 658.58,598 658.53,598.08C659.5,594.93 662.04,591.83 665.3,590.27Z" style="fill:rgb(0,85,154);fill-rule:nonzero;"/>
                <path d="M660.54,588.3C663.87,586.68 667.3,586.46 670.82,587.59C669.8,587.65 668.8,587.78 667.81,588.04C667.48,588.13 667.16,588.13 666.83,588.07C664.76,587.68 662.69,587.75 660.65,588.28C660.61,588.29 660.57,588.29 660.54,588.3Z" style="fill:rgb(0,85,154);fill-rule:nonzero;"/>
                <path d="M663.31,596.04C663.39,596.69 663.45,597.34 663.55,598C663.61,598.42 663.72,598.84 663.82,599.26C663.87,599.44 663.87,599.61 663.83,599.8C663.56,601.1 663.46,602.42 663.59,603.74C663.68,604.62 663.85,605.49 663.96,606.24C663.57,605.6 662.77,603.49 662.63,601.28C662.53,599.48 662.75,597.73 663.31,596.04Z" style="fill:rgb(0,85,154);fill-rule:nonzero;"/>
                <path d="M678.89,584.63C680.5,588.02 680.73,591.46 679.61,594.98C679.52,594.26 679.43,593.55 679.33,592.83C679.29,592.53 679.23,592.23 679.13,591.94C679.03,591.63 679.05,591.33 679.11,591.01C679.4,589.51 679.45,588.01 679.23,586.5C679.14,585.9 679.01,585.29 678.89,584.63Z" style="fill:rgb(0,85,154);fill-rule:nonzero;"/>
                <path d="M672.08,603.42C673.24,603.38 674.37,603.17 675.5,602.89C675.65,602.85 675.82,602.91 675.98,602.94C678.11,603.35 680.22,603.27 682.31,602.74C682.35,602.73 682.38,602.72 682.42,602.73C679.07,604.34 675.62,604.56 672.08,603.42Z" style="fill:rgb(0,85,154);fill-rule:nonzero;"/>
            </g>
        </g>
    </g>
</svg>
