<svg width="992" height="295" viewBox="0 0 992 295" fill="none" xmlns="http://www.w3.org/2000/svg">
<path d="M65.0296 236.108C63.4158 237.932 62.644 239.757 61.802 241.651C60.8197 243.826 59.1358 244.809 56.7502 244.809C54.2945 244.809 52.3299 243.967 51.2072 241.721C50.5056 240.248 49.804 238.704 49.804 237.02C49.383 223.829 49.6636 210.709 53.5227 197.939C55.2066 192.045 57.2414 186.291 60.3286 181.029C63.5562 175.416 65.0296 169.382 66.0119 163.137C69.029 143.842 73.9405 125.038 83.7635 107.848C90.4992 96.1304 99.6206 87.2196 113.794 85.4654C127.335 83.6412 138.632 88.4825 146.771 99.4281C153.086 107.988 160.523 114.513 171.328 116.899C173.854 117.39 176.17 118.723 178.415 119.916C180.66 121.109 182.485 123.003 181.502 125.88C180.59 128.616 178.275 129.388 175.609 129.388C167.68 129.388 159.822 129.599 151.893 129.388C143.964 129.178 136.176 129.879 128.739 132.896C117.372 137.387 109.163 145.316 103.269 155.7C92.534 174.714 90.0783 195.273 92.113 216.462C93.1655 227.478 95.8317 238.283 101.094 248.247C103.409 252.597 106.216 256.666 110.636 259.192C116.741 262.841 123.406 262.069 128.669 257.368C135.124 251.544 138.702 244.037 140.877 235.968C144.456 222.987 146.35 209.726 145.578 196.255C145.017 186.712 143.614 177.17 142.351 167.558C141.789 163.628 142.421 160.19 145.789 157.805C149.227 155.419 152.665 155.84 156.243 157.945C165.505 163.418 172.03 171.417 176.661 180.819C181.432 190.361 184.73 200.465 186.133 211.13C187.396 220.602 187.186 230.144 186.344 239.546C186.063 242.283 184.73 244.317 181.643 244.879C178.415 245.44 176.1 244.388 174.767 241.441C174.696 241.3 174.696 241.23 174.626 241.16C173.574 239.757 173.925 236.669 171.679 236.95C169.645 237.231 170.276 240.107 169.715 241.862C165.856 253.509 160.874 264.525 153.507 274.488C150.349 278.768 150.77 280.662 154.98 283.96C155.542 284.451 156.243 284.942 156.804 285.434C158.629 287.118 159.471 289.082 158.418 291.468C157.506 293.643 155.542 294.695 153.296 294.485C143.614 293.713 133.931 293.503 124.318 292.871C114.846 292.24 105.444 293.362 96.0422 293.503C92.0429 293.573 87.9733 294.204 83.9038 294.415C81.7287 294.555 79.9044 293.783 79.0625 291.538C78.1503 289.293 78.5011 287.118 80.1149 285.363C80.7464 284.662 81.7287 284.171 82.5005 283.469C86.4999 280.312 86.7805 277.996 83.6933 273.997C76.0454 264.104 70.6427 253.158 67.4152 241.09C66.7837 239.476 66.2926 237.792 65.0296 236.108Z" fill="white"/>
<path d="M0.810303 133.869C1.16112 107.488 8.94936 83.2809 25.017 62.0211C34.4892 49.3915 45.9961 38.8669 59.8886 31.0786C62.625 29.535 63.467 28.2019 61.7129 25.255C59.0467 20.554 56.8716 15.5022 54.6965 10.5907C53.4335 7.7841 54.3456 5.0477 56.5207 3.01293C58.8362 0.837839 61.7129 0.487017 64.6598 1.60965C66.7647 2.38145 67.8874 3.92507 68.8697 5.8195C71.0447 10.2399 73.29 14.5199 75.3949 18.9402C76.5877 21.4661 77.991 22.1678 80.9379 21.0452C100.233 13.6779 120.3 11.573 140.648 14.3094C160.013 16.9756 177.905 23.6412 193.973 34.7974C198.253 37.6741 202.182 40.9016 206.111 44.2695C209.689 47.2866 209.198 52.1279 205.339 54.3732C203.515 55.4257 201.761 55.2853 199.937 54.303C197.27 52.8997 195.165 50.5843 192.359 49.3214C179.028 43.2872 166.468 44.6905 155.031 53.7417C148.155 59.1444 146.191 66.8624 146.542 75.1418C146.612 77.9484 146.892 80.5445 144.296 82.2986C141.63 83.9825 139.034 83.4212 136.368 81.8776C121.914 74.0192 107.741 75.3523 94.1288 83.772C87.8842 87.5609 82.3412 92.3321 78.2015 98.4364C75.3949 102.646 73.0795 106.996 73.2198 112.259C73.29 114.644 72.3779 116.539 69.9923 117.591C67.6769 118.714 65.5719 118.293 63.6775 116.819C61.6427 115.276 59.7483 113.452 57.5732 112.118C46.1364 105.032 35.9626 107.067 24.6662 115.907C16.4569 122.433 13.2294 131.554 13.0189 141.728C12.9487 144.604 11.9664 146.709 9.23002 147.832C6.7041 148.814 4.59917 147.972 2.7749 146.148C2.0031 145.306 1.51195 144.324 1.44178 143.201C1.23129 140.044 1.0208 136.886 0.810303 133.869Z" fill="#359CF3"/>
<path d="M225.752 255.43C226.664 270.656 215.718 284.198 203.79 288.337C197.826 290.372 191.722 289.951 185.828 288.758C177.338 286.934 169.76 283.075 162.884 277.953C160.429 276.129 159.657 274.515 161.762 271.919C165.2 267.569 167.585 262.727 169.48 257.675C170.322 255.29 171.444 255.22 172.988 257.184C174.812 259.57 176.707 261.956 178.531 264.271C182.671 269.533 188.073 271.217 194.458 269.463C200.352 267.849 203.65 263.639 204.562 257.816C205.123 254.027 203.93 250.449 201.966 247.011C197.966 239.784 201.475 232.486 209.403 231.153C213.403 230.452 216.841 231.785 219.226 235.012C223.647 241.117 226.313 247.923 225.752 255.43Z" fill="#359CF3"/>
<path d="M303.55 180.601C302.328 180.601 301.289 180.173 300.434 179.317C299.578 178.462 299.151 177.423 299.151 176.201V74.8212H265.235C264.013 74.8212 262.974 74.3934 262.118 73.5379C261.263 72.6823 260.835 71.6435 260.835 70.4213V56.8551C260.835 55.5107 261.263 54.4108 262.118 53.5552C262.974 52.6997 264.013 52.272 265.235 52.272H358.732C360.076 52.272 361.176 52.6997 362.032 53.5552C362.887 54.4108 363.315 55.5107 363.315 56.8551V70.4213C363.315 71.6435 362.887 72.6823 362.032 73.5379C361.176 74.3934 360.076 74.8212 358.732 74.8212H325V176.201C325 177.423 324.572 178.462 323.716 179.317C322.861 180.173 321.761 180.601 320.416 180.601H303.55Z" fill="#359CF3"/>
<path d="M403.462 182.434C396.007 182.434 389.529 180.784 384.029 177.484C378.652 174.062 374.496 169.296 371.563 163.185C368.63 156.952 367.163 149.618 367.163 141.185V89.6706C367.163 88.4485 367.591 87.4096 368.447 86.5541C369.302 85.6985 370.341 85.2708 371.563 85.2708H387.696C389.04 85.2708 390.079 85.6985 390.812 86.5541C391.668 87.4096 392.096 88.4485 392.096 89.6706V140.086C392.096 155.241 398.757 162.818 412.078 162.818C418.434 162.818 423.445 160.801 427.111 156.768C430.9 152.735 432.794 147.174 432.794 140.086V89.6706C432.794 88.4485 433.222 87.4096 434.078 86.5541C434.933 85.6985 435.972 85.2708 437.194 85.2708H453.327C454.549 85.2708 455.588 85.6985 456.443 86.5541C457.299 87.4096 457.727 88.4485 457.727 89.6706V176.201C457.727 177.423 457.299 178.462 456.443 179.317C455.588 180.173 454.549 180.601 453.327 180.601H438.477C437.133 180.601 436.033 180.173 435.178 179.317C434.444 178.462 434.078 177.423 434.078 176.201V168.685C430.778 172.962 426.683 176.323 421.795 178.767C416.906 181.212 410.795 182.434 403.462 182.434Z" fill="#359CF3"/>
<path d="M477.91 180.601C476.81 180.601 475.832 180.234 474.977 179.501C474.243 178.645 473.877 177.668 473.877 176.568C473.877 176.201 473.938 175.773 474.06 175.284C474.304 174.795 474.671 174.184 475.16 173.451L506.326 131.652L477.36 92.4205C476.993 91.8094 476.688 91.2595 476.443 90.7706C476.321 90.2817 476.26 89.7928 476.26 89.304C476.26 88.204 476.627 87.2874 477.36 86.5541C478.215 85.6985 479.193 85.2708 480.293 85.2708H496.243C497.709 85.2708 498.809 85.6374 499.542 86.3708C500.276 87.1041 500.826 87.7763 501.192 88.3873L521.908 115.886L542.624 88.3873C543.113 87.7763 543.663 87.1041 544.274 86.3708C545.008 85.6374 546.107 85.2708 547.574 85.2708H562.79C563.89 85.2708 564.807 85.6985 565.54 86.5541C566.396 87.2874 566.823 88.1429 566.823 89.1207C566.823 89.7317 566.701 90.2817 566.457 90.7706C566.335 91.2595 566.09 91.8094 565.723 92.4205L536.391 132.019L567.74 173.451C568.229 174.184 568.534 174.795 568.657 175.284C568.901 175.773 569.023 176.201 569.023 176.568C569.023 177.668 568.596 178.645 567.74 179.501C567.007 180.234 566.09 180.601 564.99 180.601H548.307C546.963 180.601 545.924 180.295 545.191 179.684C544.458 178.951 543.846 178.279 543.358 177.668L521.358 148.519L498.993 177.668C498.504 178.279 497.893 178.951 497.159 179.684C496.548 180.295 495.509 180.601 494.043 180.601H477.91Z" fill="#359CF3"/>
<path d="M651.787 182.434C640.421 182.434 630.765 180.479 622.821 176.568C614.999 172.534 609.011 166.851 604.855 159.518C600.7 152.063 598.378 143.141 597.889 132.752C597.767 127.742 597.705 122.364 597.705 116.62C597.705 110.875 597.767 105.376 597.889 100.12C598.378 89.854 600.7 80.9932 604.855 73.5379C609.133 66.0826 615.183 60.3994 623.004 56.4885C630.949 52.4553 640.543 50.4387 651.787 50.4387C660.098 50.4387 667.553 51.5387 674.153 53.7386C680.752 55.9385 686.374 58.9939 691.019 62.9049C695.663 66.6937 699.268 71.1546 701.835 76.2878C704.402 81.4209 705.746 86.9818 705.868 92.9705C705.99 94.0705 705.624 94.9871 704.768 95.7204C704.035 96.4537 703.118 96.8204 702.018 96.8204H684.602C683.258 96.8204 682.158 96.5148 681.302 95.9038C680.447 95.1704 679.836 94.0094 679.469 92.4205C677.514 84.3541 674.153 78.8543 669.386 75.9211C664.62 72.9879 658.692 71.5213 651.603 71.5213C643.415 71.5213 636.876 73.8434 631.987 78.4877C627.099 83.0098 624.471 90.5262 624.104 101.037C623.738 111.059 623.738 121.325 624.104 131.836C624.471 142.347 627.099 149.924 631.987 154.568C636.876 159.09 643.415 161.351 651.603 161.351C658.692 161.351 664.62 159.885 669.386 156.952C674.153 153.896 677.514 148.396 679.469 140.452C679.836 138.741 680.447 137.58 681.302 136.969C682.158 136.358 683.258 136.052 684.602 136.052H702.018C703.118 136.052 704.035 136.419 704.768 137.152C705.624 137.886 705.99 138.802 705.868 139.902C705.746 145.891 704.402 151.452 701.835 156.585C699.268 161.718 695.663 166.24 691.019 170.151C686.374 173.94 680.752 176.934 674.153 179.134C667.553 181.334 660.098 182.434 651.787 182.434Z" fill="white"/>
<path d="M753.092 182.434C746.737 182.434 740.992 181.212 735.859 178.767C730.726 176.201 726.632 172.84 723.576 168.685C720.643 164.407 719.177 159.64 719.177 154.385C719.177 145.83 722.599 139.047 729.443 134.036C736.409 128.903 745.576 125.48 756.942 123.769L782.058 120.103V116.253C782.058 111.12 780.774 107.148 778.208 104.337C775.641 101.526 771.241 100.12 765.008 100.12C760.608 100.12 757.003 101.037 754.192 102.87C751.503 104.581 749.487 106.903 748.142 109.837C747.164 111.425 745.759 112.22 743.926 112.22H729.443C728.098 112.22 727.06 111.853 726.326 111.12C725.715 110.387 725.41 109.409 725.41 108.187C725.532 106.231 726.326 103.848 727.793 101.037C729.26 98.2259 731.582 95.5371 734.759 92.9705C737.937 90.2817 742.031 88.0207 747.042 86.1874C752.053 84.3541 758.103 83.4375 765.192 83.4375C772.891 83.4375 779.369 84.4153 784.624 86.3708C790.002 88.204 794.279 90.7095 797.457 93.8872C800.635 97.0648 802.957 100.792 804.424 105.07C805.89 109.348 806.623 113.87 806.623 118.636V176.201C806.623 177.423 806.196 178.462 805.34 179.317C804.485 180.173 803.446 180.601 802.224 180.601H787.374C786.03 180.601 784.93 180.173 784.074 179.317C783.341 178.462 782.974 177.423 782.974 176.201V169.051C781.385 171.373 779.247 173.573 776.558 175.651C773.869 177.606 770.569 179.256 766.658 180.601C762.869 181.823 758.347 182.434 753.092 182.434ZM759.325 165.018C763.603 165.018 767.453 164.101 770.875 162.268C774.419 160.435 777.169 157.624 779.124 153.835C781.202 149.924 782.241 145.035 782.241 139.169V135.319L763.908 138.252C756.697 139.352 751.32 141.124 747.776 143.569C744.231 146.013 742.459 149.007 742.459 152.552C742.459 155.241 743.254 157.563 744.842 159.518C746.553 161.351 748.692 162.757 751.259 163.735C753.825 164.59 756.514 165.018 759.325 165.018Z" fill="white"/>
<path d="M834.542 180.601C833.32 180.601 832.281 180.173 831.426 179.317C830.57 178.462 830.142 177.423 830.142 176.201V89.854C830.142 88.5096 830.57 87.4096 831.426 86.5541C832.281 85.6985 833.32 85.2708 834.542 85.2708H849.392C850.614 85.2708 851.653 85.6985 852.508 86.5541C853.486 87.4096 853.975 88.5096 853.975 89.854V97.3704C856.786 93.4594 860.391 90.465 864.791 88.3873C869.313 86.3096 874.507 85.2708 880.374 85.2708H887.89C889.235 85.2708 890.273 85.6985 891.007 86.5541C891.862 87.4096 892.29 88.4485 892.29 89.6706V102.87C892.29 104.092 891.862 105.131 891.007 105.987C890.273 106.842 889.235 107.27 887.89 107.27H873.591C867.724 107.27 863.141 108.92 859.841 112.22C856.664 115.52 855.075 120.042 855.075 125.786V176.201C855.075 177.423 854.647 178.462 853.792 179.317C852.936 180.173 851.836 180.601 850.492 180.601H834.542Z" fill="white"/>
<path d="M946.4 182.434C932.834 182.434 922.079 178.523 914.135 170.701C906.19 162.879 901.913 151.757 901.302 137.336C901.18 136.113 901.118 134.586 901.118 132.752C901.118 130.797 901.18 129.269 901.302 128.169C901.791 119.003 903.868 111.059 907.535 104.337C911.324 97.6148 916.518 92.4816 923.118 88.9373C929.717 85.2708 937.478 83.4375 946.4 83.4375C956.3 83.4375 964.611 85.5152 971.333 89.6706C978.055 93.7038 983.127 99.387 986.549 106.72C989.971 113.931 991.682 122.303 991.682 131.836V135.686C991.682 136.908 991.254 137.947 990.399 138.802C989.543 139.658 988.443 140.086 987.099 140.086H926.234C926.234 140.086 926.234 140.269 926.234 140.635C926.234 141.002 926.234 141.308 926.234 141.552C926.356 145.83 927.151 149.802 928.617 153.468C930.206 157.013 932.467 159.885 935.401 162.085C938.456 164.285 942.061 165.385 946.217 165.385C949.639 165.385 952.511 164.896 954.833 163.918C957.155 162.818 959.05 161.596 960.516 160.251C961.983 158.907 963.022 157.807 963.633 156.952C964.733 155.485 965.588 154.629 966.199 154.385C966.933 154.018 967.972 153.835 969.316 153.835H985.082C986.304 153.835 987.282 154.202 988.015 154.935C988.871 155.668 989.237 156.585 989.115 157.685C988.993 159.64 987.954 162.024 985.999 164.835C984.166 167.646 981.477 170.396 977.932 173.084C974.388 175.773 969.927 178.034 964.549 179.867C959.294 181.578 953.244 182.434 946.4 182.434ZM926.234 124.686H966.749V124.136C966.749 119.37 965.955 115.214 964.366 111.67C962.777 108.126 960.455 105.315 957.4 103.237C954.344 101.159 950.678 100.12 946.4 100.12C942.123 100.12 938.456 101.159 935.401 103.237C932.345 105.315 930.023 108.126 928.434 111.67C926.967 115.214 926.234 119.37 926.234 124.136V124.686Z" fill="white"/>
<path d="M309.466 246.001L319.777 210.029H324.772L321.882 224.014L310.786 261.579H305.827L309.466 246.001ZM298.798 210.029L307.004 245.293L309.466 261.579H304.542L291.948 210.029H298.798ZM338.116 245.257L346.144 210.029H353.03L340.471 261.579H335.548L338.116 245.257ZM325.522 210.029L335.548 246.001L339.187 261.579H334.227L323.524 224.014L320.598 210.029H325.522Z" fill="white"/>
<path d="M372.353 262.287C369.665 262.287 367.227 261.839 365.039 260.942C362.874 260.021 361.007 258.735 359.437 257.083C357.891 255.43 356.702 253.471 355.869 251.205C355.037 248.939 354.62 246.461 354.62 243.77V242.283C354.62 239.168 355.084 236.394 356.012 233.963C356.939 231.508 358.2 229.431 359.794 227.732C361.387 226.032 363.195 224.746 365.217 223.873C367.239 222.999 369.332 222.563 371.497 222.563C374.256 222.563 376.634 223.035 378.632 223.979C380.654 224.923 382.307 226.245 383.592 227.944C384.876 229.62 385.828 231.603 386.446 233.892C387.065 236.158 387.374 238.637 387.374 241.327V244.266H358.545V238.92H380.773V238.424C380.678 236.725 380.321 235.072 379.703 233.467C379.108 231.862 378.157 230.541 376.848 229.502C375.54 228.464 373.756 227.944 371.497 227.944C369.998 227.944 368.618 228.263 367.358 228.9C366.097 229.514 365.015 230.434 364.111 231.662C363.207 232.889 362.505 234.388 362.006 236.158C361.506 237.928 361.257 239.97 361.257 242.283V243.77C361.257 245.588 361.506 247.299 362.006 248.904C362.529 250.485 363.278 251.878 364.254 253.082C365.253 254.286 366.454 255.23 367.857 255.914C369.284 256.599 370.902 256.941 372.71 256.941C375.041 256.941 377.015 256.469 378.632 255.525C380.25 254.581 381.665 253.318 382.878 251.736L386.874 254.887C386.042 256.138 384.983 257.33 383.699 258.463C382.414 259.596 380.833 260.517 378.954 261.225C377.098 261.933 374.898 262.287 372.353 262.287Z" fill="white"/>
<path d="M427.589 210.029V261.579H420.81V210.029H427.589ZM444.287 210.029V215.623H404.147V210.029H444.287Z" fill="white"/>
<path d="M467.498 255.029V235.309C467.498 233.798 467.189 232.488 466.57 231.379C465.976 230.246 465.072 229.372 463.859 228.759C462.646 228.145 461.147 227.838 459.363 227.838C457.698 227.838 456.235 228.121 454.975 228.688C453.738 229.254 452.763 229.998 452.049 230.918C451.359 231.839 451.014 232.83 451.014 233.892H444.414C444.414 232.523 444.77 231.166 445.484 229.821C446.198 228.475 447.22 227.26 448.552 226.174C449.908 225.065 451.526 224.191 453.405 223.554C455.308 222.893 457.425 222.563 459.756 222.563C462.562 222.563 465.036 223.035 467.177 223.979C469.341 224.923 471.03 226.351 472.243 228.263C473.48 230.151 474.099 232.523 474.099 235.379V253.223C474.099 254.498 474.206 255.855 474.42 257.295C474.658 258.735 475.003 259.974 475.455 261.012V261.579H468.568C468.235 260.824 467.974 259.821 467.783 258.57C467.593 257.295 467.498 256.115 467.498 255.029ZM468.64 238.353L468.711 242.956H462.039C460.16 242.956 458.483 243.109 457.008 243.416C455.534 243.699 454.297 244.136 453.298 244.726C452.299 245.316 451.538 246.06 451.014 246.957C450.491 247.83 450.229 248.857 450.229 250.037C450.229 251.241 450.503 252.338 451.05 253.33C451.597 254.321 452.418 255.112 453.512 255.702C454.63 256.268 455.997 256.551 457.615 256.551C459.637 256.551 461.421 256.127 462.967 255.277C464.513 254.427 465.738 253.389 466.642 252.161C467.569 250.934 468.069 249.742 468.14 248.585L470.959 251.736C470.792 252.728 470.34 253.825 469.603 255.029C468.866 256.233 467.879 257.389 466.642 258.499C465.429 259.584 463.978 260.493 462.289 261.225C460.624 261.933 458.745 262.287 456.652 262.287C454.035 262.287 451.74 261.78 449.765 260.765C447.815 259.75 446.293 258.393 445.199 256.693C444.128 254.97 443.593 253.046 443.593 250.922C443.593 248.869 443.997 247.063 444.806 245.505C445.615 243.924 446.78 242.614 448.303 241.575C449.825 240.513 451.656 239.711 453.797 239.168C455.938 238.625 458.328 238.353 460.969 238.353H468.64Z" fill="white"/>
<path d="M488.926 207.197V261.579H482.289V207.197H488.926ZM512.51 223.271L495.669 241.15L486.25 250.851L485.714 243.876L492.458 235.875L504.446 223.271H512.51ZM506.48 261.579L492.708 243.31L496.133 237.468L514.258 261.579H506.48Z" fill="white"/>
<path d="M532.439 262.287C529.751 262.287 527.313 261.839 525.124 260.942C522.96 260.021 521.093 258.735 519.523 257.083C517.977 255.43 516.787 253.471 515.955 251.205C515.122 248.939 514.706 246.461 514.706 243.77V242.283C514.706 239.168 515.17 236.394 516.097 233.963C517.025 231.508 518.286 229.431 519.88 227.732C521.473 226.032 523.281 224.746 525.303 223.873C527.325 222.999 529.418 222.563 531.582 222.563C534.341 222.563 536.72 223.035 538.718 223.979C540.74 224.923 542.393 226.245 543.678 227.944C544.962 229.62 545.913 231.603 546.532 233.892C547.15 236.158 547.46 238.637 547.46 241.327V244.266H518.631V238.92H540.859V238.424C540.764 236.725 540.407 235.072 539.788 233.467C539.194 231.862 538.242 230.541 536.934 229.502C535.626 228.464 533.842 227.944 531.582 227.944C530.084 227.944 528.704 228.263 527.443 228.9C526.183 229.514 525.101 230.434 524.197 231.662C523.293 232.889 522.591 234.388 522.092 236.158C521.592 237.928 521.342 239.97 521.342 242.283V243.77C521.342 245.588 521.592 247.299 522.092 248.904C522.615 250.485 523.364 251.878 524.339 253.082C525.338 254.286 526.54 255.23 527.943 255.914C529.37 256.599 530.988 256.941 532.795 256.941C535.126 256.941 537.101 256.469 538.718 255.525C540.336 254.581 541.751 253.318 542.964 251.736L546.96 254.887C546.128 256.138 545.069 257.33 543.785 258.463C542.5 259.596 540.918 260.517 539.039 261.225C537.184 261.933 534.984 262.287 532.439 262.287Z" fill="white"/>
<path d="M601.268 245.186H608.119C607.762 248.444 606.822 251.359 605.3 253.931C603.778 256.504 601.625 258.546 598.842 260.057C596.059 261.544 592.586 262.287 588.424 262.287C585.379 262.287 582.608 261.721 580.11 260.588C577.637 259.455 575.508 257.85 573.724 255.773C571.94 253.672 570.56 251.158 569.585 248.231C568.634 245.281 568.158 242 568.158 238.389V233.255C568.158 229.644 568.634 226.375 569.585 223.448C570.56 220.497 571.952 217.972 573.759 215.871C575.591 213.771 577.791 212.154 580.36 211.021C582.929 209.888 585.819 209.321 589.03 209.321C592.955 209.321 596.273 210.053 598.985 211.516C601.696 212.98 603.801 215.01 605.3 217.606C606.822 220.179 607.762 223.165 608.119 226.563H601.268C600.935 224.156 600.317 222.091 599.413 220.368C598.509 218.621 597.225 217.276 595.56 216.331C593.894 215.387 591.718 214.915 589.03 214.915C586.723 214.915 584.689 215.352 582.929 216.225C581.193 217.099 579.73 218.338 578.54 219.943C577.375 221.548 576.495 223.471 575.9 225.714C575.306 227.956 575.008 230.446 575.008 233.184V238.389C575.008 240.914 575.27 243.286 575.793 245.505C576.34 247.724 577.161 249.671 578.255 251.347C579.349 253.023 580.741 254.345 582.43 255.312C584.118 256.256 586.116 256.728 588.424 256.728C591.349 256.728 593.68 256.268 595.417 255.348C597.153 254.427 598.461 253.105 599.342 251.382C600.245 249.659 600.888 247.594 601.268 245.186Z" fill="white"/>
<path d="M637.074 255.029V235.309C637.074 233.798 636.765 232.488 636.147 231.379C635.552 230.246 634.648 229.372 633.435 228.759C632.222 228.145 630.724 227.838 628.94 227.838C627.275 227.838 625.812 228.121 624.551 228.688C623.314 229.254 622.339 229.998 621.625 230.918C620.936 231.839 620.591 232.83 620.591 233.892H613.99C613.99 232.523 614.347 231.166 615.06 229.821C615.774 228.475 616.797 227.26 618.129 226.174C619.485 225.065 621.102 224.191 622.981 223.554C624.884 222.893 627.001 222.563 629.332 222.563C632.139 222.563 634.613 223.035 636.753 223.979C638.918 224.923 640.607 226.351 641.82 228.263C643.057 230.151 643.675 232.523 643.675 235.379V253.223C643.675 254.498 643.782 255.855 643.996 257.295C644.234 258.735 644.579 259.974 645.031 261.012V261.579H638.145C637.812 260.824 637.55 259.821 637.36 258.57C637.17 257.295 637.074 256.115 637.074 255.029ZM638.216 238.353L638.288 242.956H631.616C629.736 242.956 628.06 243.109 626.585 243.416C625.11 243.699 623.873 244.136 622.874 244.726C621.875 245.316 621.114 246.06 620.591 246.957C620.067 247.83 619.806 248.857 619.806 250.037C619.806 251.241 620.079 252.338 620.626 253.33C621.173 254.321 621.994 255.112 623.088 255.702C624.206 256.268 625.574 256.551 627.191 256.551C629.213 256.551 630.997 256.127 632.543 255.277C634.089 254.427 635.314 253.389 636.218 252.161C637.146 250.934 637.645 249.742 637.717 248.585L640.535 251.736C640.369 252.728 639.917 253.825 639.18 255.029C638.442 256.233 637.455 257.389 636.218 258.499C635.005 259.584 633.554 260.493 631.865 261.225C630.2 261.933 628.321 262.287 626.228 262.287C623.611 262.287 621.316 261.78 619.342 260.765C617.391 259.75 615.869 258.393 614.775 256.693C613.705 254.97 613.169 253.046 613.169 250.922C613.169 248.869 613.574 247.063 614.382 245.505C615.191 243.924 616.357 242.614 617.879 241.575C619.401 240.513 621.233 239.711 623.374 239.168C625.514 238.625 627.905 238.353 630.545 238.353H638.216Z" fill="white"/>
<path d="M658.466 229.29V261.579H651.866V223.271H658.288L658.466 229.29ZM670.526 223.058L670.49 229.148C669.943 229.03 669.42 228.959 668.92 228.936C668.445 228.888 667.898 228.865 667.279 228.865C665.757 228.865 664.413 229.101 663.247 229.573C662.082 230.045 661.095 230.706 660.286 231.556C659.477 232.405 658.835 233.42 658.359 234.6C657.907 235.757 657.61 237.032 657.467 238.424L655.612 239.486C655.612 237.173 655.838 235.002 656.29 232.972C656.766 230.942 657.491 229.148 658.466 227.59C659.442 226.009 660.678 224.781 662.177 223.908C663.699 223.011 665.507 222.563 667.6 222.563C668.076 222.563 668.623 222.622 669.241 222.74C669.86 222.834 670.288 222.94 670.526 223.058Z" fill="white"/>
<path d="M689.741 262.287C687.053 262.287 684.615 261.839 682.427 260.942C680.263 260.021 678.395 258.735 676.825 257.083C675.279 255.43 674.09 253.471 673.258 251.205C672.425 248.939 672.009 246.461 672.009 243.77V242.283C672.009 239.168 672.473 236.394 673.4 233.963C674.328 231.508 675.589 229.431 677.182 227.732C678.776 226.032 680.584 224.746 682.605 223.873C684.627 222.999 686.72 222.563 688.885 222.563C691.644 222.563 694.023 223.035 696.021 223.979C698.043 224.923 699.696 226.245 700.98 227.944C702.265 229.62 703.216 231.603 703.835 233.892C704.453 236.158 704.762 238.637 704.762 241.327V244.266H675.933V238.92H698.162V238.424C698.066 236.725 697.71 235.072 697.091 233.467C696.497 231.862 695.545 230.541 694.237 229.502C692.929 228.464 691.145 227.944 688.885 227.944C687.387 227.944 686.007 228.263 684.746 228.9C683.486 229.514 682.403 230.434 681.499 231.662C680.596 232.889 679.894 234.388 679.394 236.158C678.895 237.928 678.645 239.97 678.645 242.283V243.77C678.645 245.588 678.895 247.299 679.394 248.904C679.918 250.485 680.667 251.878 681.642 253.082C682.641 254.286 683.842 255.23 685.246 255.914C686.673 256.599 688.29 256.941 690.098 256.941C692.429 256.941 694.403 256.469 696.021 255.525C697.638 254.581 699.054 253.318 700.267 251.736L704.263 254.887C703.43 256.138 702.372 257.33 701.087 258.463C699.803 259.596 698.221 260.517 696.342 261.225C694.487 261.933 692.286 262.287 689.741 262.287Z" fill="white"/>
<path d="M724.462 242.85V242.035C724.462 239.274 724.866 236.713 725.675 234.353C726.483 231.969 727.649 229.903 729.171 228.157C730.694 226.386 732.537 225.017 734.701 224.05C736.866 223.058 739.292 222.563 741.98 222.563C744.692 222.563 747.13 223.058 749.294 224.05C751.483 225.017 753.338 226.386 754.86 228.157C756.406 229.903 757.584 231.969 758.393 234.353C759.201 236.713 759.606 239.274 759.606 242.035V242.85C759.606 245.611 759.201 248.172 758.393 250.533C757.584 252.893 756.406 254.958 754.86 256.728C753.338 258.475 751.495 259.844 749.33 260.835C747.189 261.803 744.763 262.287 742.051 262.287C739.34 262.287 736.902 261.803 734.737 260.835C732.573 259.844 730.717 258.475 729.171 256.728C727.649 254.958 726.483 252.893 725.675 250.533C724.866 248.172 724.462 245.611 724.462 242.85ZM731.062 242.035V242.85C731.062 244.762 731.288 246.567 731.74 248.267C732.192 249.943 732.87 251.43 733.774 252.728C734.702 254.026 735.855 255.053 737.235 255.808C738.614 256.54 740.22 256.905 742.051 256.905C743.859 256.905 745.441 256.54 746.797 255.808C748.176 255.053 749.318 254.026 750.222 252.728C751.126 251.43 751.804 249.943 752.256 248.267C752.731 246.567 752.969 244.762 752.969 242.85V242.035C752.969 240.147 752.731 238.365 752.256 236.689C751.804 234.99 751.114 233.491 750.186 232.193C749.282 230.871 748.141 229.833 746.761 229.077C745.405 228.322 743.812 227.944 741.98 227.944C740.172 227.944 738.579 228.322 737.199 229.077C735.843 229.833 734.702 230.871 733.774 232.193C732.87 233.491 732.192 234.99 731.74 236.689C731.288 238.365 731.062 240.147 731.062 242.035Z" fill="white"/>
<path d="M775.539 261.579H768.938V219.235C768.938 216.473 769.437 214.148 770.436 212.26C771.459 210.348 772.922 208.908 774.825 207.94C776.728 206.949 778.988 206.453 781.604 206.453C782.365 206.453 783.126 206.501 783.887 206.595C784.672 206.69 785.434 206.831 786.171 207.02L785.814 212.366C785.315 212.248 784.744 212.165 784.102 212.118C783.483 212.071 782.865 212.047 782.246 212.047C780.843 212.047 779.63 212.331 778.607 212.897C777.608 213.44 776.847 214.243 776.323 215.305C775.8 216.367 775.539 217.677 775.539 219.235V261.579ZM783.745 223.271V228.298H762.837V223.271H783.745Z" fill="white"/>
<path d="M837.339 256.02V261.579H811.365V256.02H837.339ZM812.721 210.029V261.579H805.835V210.029H812.721Z" fill="white"/>
<path d="M849.205 223.271V261.579H842.568V223.271H849.205ZM842.069 213.11C842.069 212.047 842.39 211.151 843.032 210.419C843.698 209.687 844.674 209.321 845.958 209.321C847.219 209.321 848.182 209.687 848.848 210.419C849.538 211.151 849.883 212.047 849.883 213.11C849.883 214.125 849.538 214.998 848.848 215.73C848.182 216.438 847.219 216.792 845.958 216.792C844.674 216.792 843.698 216.438 843.032 215.73C842.39 214.998 842.069 214.125 842.069 213.11Z" fill="white"/>
<path d="M864.21 231.449V261.579H857.609V223.271H863.853L864.21 231.449ZM862.64 240.973L859.893 240.867C859.917 238.247 860.309 235.828 861.07 233.609C861.831 231.367 862.902 229.419 864.281 227.767C865.661 226.115 867.302 224.84 869.205 223.944C871.132 223.023 873.261 222.563 875.592 222.563C877.495 222.563 879.207 222.822 880.73 223.342C882.252 223.837 883.548 224.64 884.619 225.749C885.713 226.859 886.545 228.298 887.116 230.069C887.687 231.815 887.972 233.951 887.972 236.477V261.579H881.336V236.406C881.336 234.4 881.039 232.795 880.444 231.591C879.849 230.364 878.981 229.478 877.84 228.936C876.698 228.369 875.294 228.086 873.629 228.086C871.988 228.086 870.49 228.428 869.134 229.113C867.802 229.797 866.648 230.741 865.673 231.945C864.721 233.149 863.972 234.53 863.425 236.087C862.902 237.622 862.64 239.25 862.64 240.973Z" fill="white"/>
<path d="M919.426 252.728V223.271H926.062V261.579H919.747L919.426 252.728ZM920.675 244.655L923.422 244.585C923.422 247.134 923.148 249.494 922.601 251.666C922.078 253.813 921.222 255.678 920.032 257.26C918.843 258.841 917.285 260.08 915.358 260.977C913.432 261.85 911.089 262.287 908.33 262.287C906.451 262.287 904.726 262.016 903.156 261.473C901.61 260.93 900.278 260.092 899.16 258.959C898.042 257.826 897.174 256.351 896.555 254.533C895.961 252.716 895.664 250.533 895.664 247.983V223.271H902.264V248.054C902.264 249.777 902.454 251.205 902.835 252.338C903.239 253.448 903.775 254.333 904.441 254.994C905.13 255.631 905.892 256.079 906.724 256.339C907.58 256.599 908.46 256.728 909.364 256.728C912.171 256.728 914.395 256.197 916.036 255.135C917.678 254.05 918.855 252.598 919.569 250.78C920.306 248.939 920.675 246.898 920.675 244.655Z" fill="white"/>
<path d="M938.392 223.271L946.848 237.22L955.411 223.271H963.153L950.522 242.177L963.545 261.579H955.91L946.99 247.205L938.07 261.579H930.399L943.387 242.177L930.792 223.271H938.392Z" fill="white"/>
</svg>
